<?xml version="1.0" encoding="UTF-8"?>
<svg id="Layer_1" data-name="Layer 1" xmlns="http://www.w3.org/2000/svg" viewBox="0 0 1296 180">
  <defs>
    <style>
      .cls-1 {
        fill: #4c83c3;
      }

      .cls-2 {
        fill: #fdba12;
      }

      .cls-3 {
        fill: #b22c1b;
      }

      .cls-4 {
        fill: #b12e25;
      }
    </style>
  </defs>
  <g>
    <path class="cls-1" d="M289.27,25.62h3.04v22.23h-3.04v-22.23Z"/>
    <path class="cls-1" d="M315.7,32.29h-2.94c-.33-1.44-1-2.58-1.99-3.42-.99-.84-2.39-1.26-4.18-1.26-2.19,0-3.96.77-5.3,2.31-1.35,1.54-2.02,3.9-2.02,7.08,0,2.6.61,4.72,1.82,6.34,1.22,1.62,3.03,2.43,5.44,2.43,2.22,0,3.91-.85,5.07-2.56.61-.9,1.07-2.08,1.38-3.54h2.94c-.26,2.34-1.13,4.3-2.6,5.89-1.77,1.91-4.15,2.86-7.14,2.86-2.58,0-4.75-.78-6.51-2.34-2.31-2.07-3.46-5.26-3.46-9.58,0-3.28.87-5.97,2.6-8.06,1.88-2.28,4.46-3.42,7.76-3.42,2.81,0,5,.74,6.55,2.22s2.42,3.17,2.59,5.05Z"/>
    <path class="cls-1" d="M319.86,25.62h10c1.98,0,3.57.56,4.78,1.67,1.21,1.11,1.82,2.68,1.82,4.7,0,1.73-.54,3.25-1.62,4.53-1.08,1.29-2.74,1.93-4.98,1.93h-6.99v9.4h-3.01v-22.23ZM331.6,28.69c-.67-.31-1.58-.47-2.74-.47h-5.99v7.69h5.99c1.35,0,2.45-.29,3.29-.86.84-.57,1.26-1.59,1.26-3.04,0-1.63-.6-2.74-1.82-3.32Z"/>
    <path class="cls-1" d="M358.75,32.29h-2.94c-.33-1.44-1-2.58-1.99-3.42-.99-.84-2.39-1.26-4.18-1.26-2.19,0-3.96.77-5.3,2.31-1.35,1.54-2.02,3.9-2.02,7.08,0,2.6.61,4.72,1.82,6.34,1.22,1.62,3.03,2.43,5.44,2.43,2.22,0,3.91-.85,5.07-2.56.61-.9,1.07-2.08,1.38-3.54h2.94c-.26,2.34-1.13,4.3-2.6,5.89-1.77,1.91-4.15,2.86-7.14,2.86-2.58,0-4.75-.78-6.51-2.34-2.31-2.07-3.46-5.26-3.46-9.58,0-3.28.87-5.97,2.6-8.06,1.88-2.28,4.46-3.42,7.76-3.42,2.81,0,5,.74,6.55,2.22s2.42,3.17,2.59,5.05Z"/>
    <path class="cls-1" d="M371.91,25.62h3.04v22.23h-3.04v-22.23Z"/>
    <path class="cls-1" d="M379.47,31.64h2.59v2.3c.77-.95,1.58-1.63,2.44-2.04.86-.41,1.81-.62,2.86-.62,2.3,0,3.86.8,4.67,2.41.44.88.67,2.13.67,3.77v10.39h-2.78v-10.21c0-.99-.15-1.79-.44-2.39-.48-1.01-1.36-1.51-2.63-1.51-.65,0-1.17.07-1.59.2-.75.22-1.4.67-1.97,1.33-.45.53-.75,1.09-.89,1.66s-.2,1.38-.2,2.44v8.49h-2.72v-16.2Z"/>
    <path class="cls-1" d="M397.25,27.11h2.75v4.52h2.59v2.22h-2.59v10.58c0,.56.19.94.58,1.13.21.11.56.17,1.06.17.13,0,.27,0,.42,0,.15,0,.33-.02.53-.04v2.15c-.31.09-.64.16-.98.2-.34.04-.7.06-1.1.06-1.27,0-2.13-.33-2.59-.98-.45-.65-.68-1.5-.68-2.53v-10.73h-2.19v-2.22h2.19v-4.52Z"/>
    <path class="cls-1" d="M417.87,34.18c.54.82.91,1.77,1.09,2.86.16.75.24,1.94.24,3.57h-11.88c.05,1.64.44,2.96,1.17,3.96.73.99,1.85,1.49,3.37,1.49,1.42,0,2.56-.47,3.4-1.41.48-.54.83-1.17,1.03-1.89h2.68c-.07.6-.31,1.26-.7,1.99-.4.73-.85,1.33-1.34,1.79-.83.81-1.85,1.35-3.07,1.63-.66.16-1.4.24-2.22.24-2.02,0-3.73-.73-5.13-2.2s-2.1-3.52-2.1-6.17.71-4.72,2.12-6.34,3.26-2.44,5.54-2.44c1.15,0,2.26.27,3.34.81,1.08.54,1.9,1.24,2.47,2.1ZM416.41,38.45c-.11-1.18-.37-2.12-.77-2.83-.75-1.31-1.99-1.97-3.74-1.97-1.25,0-2.3.45-3.15,1.35-.85.9-1.3,2.05-1.35,3.44h9Z"/>
    <path class="cls-1" d="M422.62,31.64h2.59v2.8c.21-.54.73-1.21,1.56-1.99s1.78-1.17,2.86-1.17c.05,0,.14,0,.26.02.12.01.33.03.62.06v2.87c-.16-.03-.31-.05-.45-.06-.14-.01-.29-.02-.45-.02-1.37,0-2.43.44-3.16,1.32-.74.88-1.1,1.9-1.1,3.05v9.32h-2.72v-16.2Z"/>
    <path class="cls-1" d="M432.87,31.64h2.59v2.3c.77-.95,1.58-1.63,2.44-2.04.86-.41,1.81-.62,2.86-.62,2.3,0,3.86.8,4.67,2.41.44.88.67,2.13.67,3.77v10.39h-2.78v-10.21c0-.99-.15-1.79-.44-2.39-.48-1.01-1.36-1.51-2.63-1.51-.65,0-1.17.07-1.59.2-.75.22-1.4.67-1.97,1.33-.45.53-.75,1.09-.89,1.66s-.2,1.38-.2,2.44v8.49h-2.72v-16.2Z"/>
    <path class="cls-1" d="M458.79,38.02c.63-.08,1.04-.34,1.26-.79.12-.24.18-.59.18-1.04,0-.93-.33-1.6-.99-2.02s-1.61-.63-2.84-.63c-1.42,0-2.43.38-3.03,1.15-.33.42-.55,1.05-.65,1.89h-2.54c.05-2,.7-3.39,1.94-4.17,1.25-.78,2.69-1.17,4.33-1.17,1.91,0,3.45.36,4.65,1.09,1.18.73,1.77,1.86,1.77,3.39v9.34c0,.28.06.51.17.68.12.17.36.26.73.26.12,0,.26,0,.41-.02s.31-.04.48-.07v2.01c-.42.12-.75.2-.97.23-.22.03-.52.05-.91.05-.94,0-1.62-.33-2.04-1-.22-.35-.38-.85-.47-1.5-.55.73-1.35,1.36-2.39,1.89-1.04.53-2.18.8-3.43.8-1.5,0-2.73-.46-3.68-1.37-.95-.91-1.43-2.06-1.43-3.43,0-1.5.47-2.67,1.41-3.5.94-.83,2.17-1.34,3.69-1.53l4.34-.54ZM455.09,46.07c.96,0,1.89-.22,2.78-.67,1.51-.74,2.27-1.94,2.27-3.62v-2.19c-.33.21-.76.39-1.29.53-.52.14-1.04.24-1.54.3l-1.65.21c-.99.13-1.73.34-2.22.62-.84.47-1.26,1.23-1.26,2.27,0,.79.29,1.41.86,1.86.58.45,1.26.68,2.04.68Z"/>
    <path class="cls-1" d="M467.88,27.11h2.75v4.52h2.59v2.22h-2.59v10.58c0,.56.19.94.58,1.13.21.11.56.17,1.06.17.13,0,.27,0,.42,0,.15,0,.33-.02.53-.04v2.15c-.31.09-.64.16-.98.2-.34.04-.7.06-1.1.06-1.27,0-2.13-.33-2.59-.98-.45-.65-.68-1.5-.68-2.53v-10.73h-2.19v-2.22h2.19v-4.52Z"/>
    <path class="cls-1" d="M477.3,28.88c-.33,0-.64-.04-.93-.12-.29-.08-.53-.2-.73-.35s-.36-.33-.48-.53c-.12-.2-.17-.42-.17-.67s.06-.49.18-.71c.12-.22.28-.41.49-.58.21-.16.45-.29.73-.38.28-.09.58-.14.91-.14s.62.05.9.14c.28.09.52.22.73.38.21.16.37.35.49.58.12.22.18.46.18.71s-.06.46-.17.67c-.12.2-.27.38-.48.53s-.44.27-.73.35c-.28.08-.59.12-.92.12ZM475.94,31.71h2.78v16.13h-2.78v-16.13ZM475.94,31.71h2.78v16.13h-2.78v-16.13Z"/>
    <path class="cls-1" d="M496.82,39.4c0,2.61-.64,4.77-1.91,6.48s-3.24,2.56-5.92,2.56c-2.23,0-4-.75-5.31-2.26-1.31-1.51-1.97-3.53-1.97-6.07,0-2.72.69-4.89,2.07-6.51s3.24-2.42,5.57-2.42c2.09,0,3.85.7,5.3,2.09,1.44,1.39,2.16,3.44,2.16,6.14ZM493.98,39.48c0-1.51-.24-2.74-.73-3.69-.77-1.49-2.09-2.24-3.97-2.24-1.67,0-2.88.64-3.64,1.91-.76,1.27-1.14,2.8-1.14,4.6s.38,3.16,1.14,4.31,1.96,1.73,3.61,1.73c1.81,0,3.05-.68,3.72-2.05s1.01-2.89,1.01-4.56Z"/>
    <path class="cls-1" d="M500.06,31.64h2.59v2.3c.77-.95,1.58-1.63,2.44-2.04.86-.41,1.81-.62,2.86-.62,2.3,0,3.86.8,4.67,2.41.44.88.67,2.13.67,3.77v10.39h-2.78v-10.21c0-.99-.15-1.79-.44-2.39-.48-1.01-1.36-1.51-2.63-1.51-.65,0-1.17.07-1.59.2-.75.22-1.4.67-1.97,1.33-.45.53-.75,1.09-.89,1.66s-.2,1.38-.2,2.44v8.49h-2.72v-16.2Z"/>
    <path class="cls-1" d="M525.98,38.02c.63-.08,1.04-.34,1.26-.79.12-.24.18-.59.18-1.04,0-.93-.33-1.6-.99-2.02s-1.61-.63-2.84-.63c-1.42,0-2.43.38-3.03,1.15-.33.42-.55,1.05-.65,1.89h-2.54c.05-2,.7-3.39,1.94-4.17,1.25-.78,2.69-1.17,4.33-1.17,1.91,0,3.45.36,4.65,1.09,1.18.73,1.77,1.86,1.77,3.39v9.34c0,.28.06.51.17.68.12.17.36.26.73.26.12,0,.26,0,.41-.02s.31-.04.48-.07v2.01c-.42.12-.75.2-.97.23-.22.03-.52.05-.91.05-.94,0-1.62-.33-2.04-1-.22-.35-.38-.85-.47-1.5-.55.73-1.35,1.36-2.39,1.89-1.04.53-2.18.8-3.43.8-1.5,0-2.73-.46-3.68-1.37-.95-.91-1.43-2.06-1.43-3.43,0-1.5.47-2.67,1.41-3.5.94-.83,2.17-1.34,3.69-1.53l4.34-.54ZM522.29,46.07c.96,0,1.89-.22,2.78-.67,1.51-.74,2.27-1.94,2.27-3.62v-2.19c-.33.21-.76.39-1.29.53-.52.14-1.04.24-1.54.3l-1.65.21c-.99.13-1.73.34-2.22.62-.84.47-1.26,1.23-1.26,2.27,0,.79.29,1.41.86,1.86.58.45,1.26.68,2.04.68Z"/>
    <path class="cls-1" d="M534.6,25.62h2.72v22.23h-2.72v-22.23Z"/>
    <path class="cls-1" d="M568.89,32.29h-2.94c-.33-1.44-1-2.58-1.99-3.42-.99-.84-2.39-1.26-4.18-1.26-2.19,0-3.96.77-5.3,2.31-1.35,1.54-2.02,3.9-2.02,7.08,0,2.6.61,4.72,1.82,6.34,1.22,1.62,3.03,2.43,5.44,2.43,2.22,0,3.91-.85,5.07-2.56.61-.9,1.07-2.08,1.38-3.54h2.94c-.26,2.34-1.13,4.3-2.6,5.89-1.77,1.91-4.15,2.86-7.14,2.86-2.58,0-4.75-.78-6.51-2.34-2.31-2.07-3.46-5.26-3.46-9.58,0-3.28.87-5.97,2.6-8.06,1.88-2.28,4.46-3.42,7.76-3.42,2.81,0,5,.74,6.55,2.22s2.42,3.17,2.59,5.05Z"/>
    <path class="cls-1" d="M586.39,39.4c0,2.61-.64,4.77-1.91,6.48s-3.24,2.56-5.92,2.56c-2.23,0-4-.75-5.31-2.26s-1.97-3.53-1.97-6.07c0-2.72.69-4.89,2.07-6.51,1.38-1.61,3.24-2.42,5.57-2.42,2.09,0,3.85.7,5.3,2.09,1.44,1.39,2.16,3.44,2.16,6.14ZM583.55,39.48c0-1.51-.24-2.74-.73-3.69-.77-1.49-2.09-2.24-3.97-2.24-1.67,0-2.88.64-3.64,1.91-.76,1.27-1.14,2.8-1.14,4.6s.38,3.16,1.14,4.31c.76,1.15,1.96,1.73,3.61,1.73,1.81,0,3.05-.68,3.72-2.05s1.01-2.89,1.01-4.56Z"/>
    <path class="cls-1" d="M589.71,25.62h2.72v22.23h-2.72v-22.23Z"/>
    <path class="cls-1" d="M596.59,25.62h2.72v22.23h-2.72v-22.23Z"/>
    <path class="cls-1" d="M615.95,34.18c.54.82.91,1.77,1.09,2.86.16.75.24,1.94.24,3.57h-11.88c.05,1.64.44,2.96,1.17,3.96.73.99,1.85,1.49,3.37,1.49,1.42,0,2.56-.47,3.4-1.41.48-.54.83-1.17,1.03-1.89h2.68c-.07.6-.3,1.26-.7,1.99-.4.73-.84,1.33-1.34,1.79-.83.81-1.85,1.35-3.07,1.63-.66.16-1.4.24-2.22.24-2.02,0-3.73-.73-5.13-2.2s-2.1-3.52-2.1-6.17.71-4.72,2.12-6.34c1.41-1.62,3.26-2.44,5.54-2.44,1.15,0,2.26.27,3.34.81s1.9,1.24,2.47,2.1ZM614.49,38.45c-.11-1.18-.37-2.12-.77-2.83-.75-1.31-1.99-1.97-3.74-1.97-1.25,0-2.3.45-3.15,1.35-.85.9-1.3,2.05-1.35,3.44h9Z"/>
    <path class="cls-1" d="M629.68,32.29c.51.35,1.04.87,1.57,1.54v-2.04h2.51v14.74c0,2.06-.3,3.68-.91,4.87-1.13,2.2-3.26,3.3-6.4,3.3-1.75,0-3.21-.39-4.4-1.17-1.19-.78-1.86-2-2-3.67h2.77c.13.73.39,1.29.79,1.68.62.6,1.58.91,2.91.91,2.09,0,3.45-.74,4.1-2.21.38-.87.56-2.42.53-4.65-.54.83-1.2,1.44-1.97,1.85-.77.4-1.78.61-3.04.61-1.76,0-3.29-.62-4.61-1.87-1.32-1.25-1.97-3.31-1.97-6.18,0-2.71.66-4.83,1.99-6.35s2.93-2.28,4.8-2.28c1.27,0,2.38.31,3.33.94ZM626.84,33.77c-1.92,0-3.23.9-3.94,2.69-.37.96-.56,2.21-.56,3.76,0,1.82.37,3.21,1.11,4.16.74.95,1.74,1.43,2.99,1.43,1.96,0,3.34-.88,4.14-2.64.44-1,.67-2.16.67-3.49,0-2-.41-3.49-1.24-4.46-.83-.97-1.88-1.45-3.17-1.45Z"/>
    <path class="cls-1" d="M639.23,28.88c-.33,0-.64-.04-.93-.12-.29-.08-.53-.2-.73-.35s-.36-.33-.48-.53c-.12-.2-.17-.42-.17-.67s.06-.49.18-.71c.12-.22.29-.41.49-.58.21-.16.45-.29.73-.38.28-.09.58-.14.91-.14s.62.05.9.14c.28.09.52.22.73.38.21.16.37.35.49.58.12.22.18.46.18.71s-.06.46-.17.67c-.12.2-.27.38-.48.53s-.44.27-.73.35c-.28.08-.59.12-.92.12ZM637.86,31.71h2.78v16.13h-2.78v-16.13ZM637.86,31.71h2.78v16.13h-2.78v-16.13Z"/>
    <path class="cls-1" d="M653.43,38.02c.62-.08,1.04-.34,1.26-.79.12-.24.18-.59.18-1.04,0-.93-.33-1.6-.99-2.02-.66-.42-1.61-.63-2.84-.63-1.42,0-2.43.38-3.03,1.15-.33.42-.55,1.05-.65,1.89h-2.54c.05-2,.7-3.39,1.94-4.17,1.25-.78,2.69-1.17,4.33-1.17,1.91,0,3.46.36,4.65,1.09,1.18.73,1.77,1.86,1.77,3.39v9.34c0,.28.06.51.17.68.12.17.36.26.73.26.12,0,.26,0,.41-.02s.31-.04.48-.07v2.01c-.42.12-.75.2-.97.23s-.52.05-.91.05c-.94,0-1.62-.33-2.04-1-.22-.35-.38-.85-.47-1.5-.55.73-1.35,1.36-2.39,1.89-1.04.53-2.18.8-3.43.8-1.5,0-2.73-.46-3.68-1.37-.95-.91-1.43-2.06-1.43-3.43,0-1.5.47-2.67,1.41-3.5.94-.83,2.17-1.34,3.69-1.53l4.34-.54ZM649.74,46.07c.96,0,1.89-.22,2.78-.67,1.51-.74,2.27-1.94,2.27-3.62v-2.19c-.33.21-.76.39-1.29.53-.53.14-1.04.24-1.54.3l-1.65.21c-.99.13-1.73.34-2.22.62-.84.47-1.26,1.23-1.26,2.27,0,.79.29,1.41.86,1.86.58.45,1.26.68,2.04.68Z"/>
    <path class="cls-1" d="M662.53,27.11h2.75v4.52h2.59v2.22h-2.59v10.58c0,.56.19.94.57,1.13.21.11.57.17,1.06.17.13,0,.27,0,.42,0,.15,0,.33-.02.53-.04v2.15c-.31.09-.64.16-.98.2-.34.04-.7.06-1.1.06-1.27,0-2.13-.33-2.59-.98-.45-.65-.68-1.5-.68-2.53v-10.73h-2.19v-2.22h2.19v-4.52Z"/>
    <path class="cls-1" d="M683.15,34.18c.54.82.91,1.77,1.09,2.86.16.75.24,1.94.24,3.57h-11.88c.05,1.64.44,2.96,1.17,3.96.73.99,1.85,1.49,3.37,1.49,1.42,0,2.56-.47,3.4-1.41.48-.54.83-1.17,1.03-1.89h2.68c-.07.6-.3,1.26-.7,1.99-.4.73-.84,1.33-1.34,1.79-.83.81-1.85,1.35-3.07,1.63-.66.16-1.4.24-2.22.24-2.02,0-3.73-.73-5.13-2.2s-2.1-3.52-2.1-6.17.71-4.72,2.12-6.34c1.41-1.62,3.26-2.44,5.54-2.44,1.15,0,2.26.27,3.34.81s1.9,1.24,2.47,2.1ZM681.68,38.45c-.11-1.18-.37-2.12-.77-2.83-.75-1.31-1.99-1.97-3.74-1.97-1.25,0-2.3.45-3.15,1.35-.85.9-1.3,2.05-1.35,3.44h9Z"/>
    <path class="cls-1" d="M697.08,25.62h10c1.98,0,3.57.56,4.78,1.67,1.21,1.11,1.82,2.68,1.82,4.7,0,1.73-.54,3.25-1.62,4.53-1.08,1.29-2.74,1.93-4.98,1.93h-6.99v9.4h-3.01v-22.23ZM708.82,28.69c-.67-.31-1.58-.47-2.74-.47h-5.99v7.69h5.99c1.35,0,2.45-.29,3.29-.86.84-.57,1.26-1.59,1.26-3.04,0-1.63-.61-2.74-1.82-3.32Z"/>
    <path class="cls-1" d="M717.18,31.64h2.59v2.8c.21-.54.73-1.21,1.56-1.99.83-.78,1.78-1.17,2.86-1.17.05,0,.14,0,.26.02.12.01.33.03.62.06v2.87c-.16-.03-.31-.05-.45-.06-.14-.01-.29-.02-.45-.02-1.37,0-2.43.44-3.16,1.32s-1.1,1.9-1.1,3.05v9.32h-2.72v-16.2Z"/>
    <path class="cls-1" d="M741.41,39.4c0,2.61-.64,4.77-1.91,6.48s-3.24,2.56-5.92,2.56c-2.23,0-4-.75-5.31-2.26s-1.97-3.53-1.97-6.07c0-2.72.69-4.89,2.07-6.51,1.38-1.61,3.24-2.42,5.57-2.42,2.09,0,3.85.7,5.3,2.09,1.44,1.39,2.16,3.44,2.16,6.14ZM738.57,39.48c0-1.51-.24-2.74-.73-3.69-.77-1.49-2.09-2.24-3.97-2.24-1.67,0-2.88.64-3.64,1.91-.76,1.27-1.14,2.8-1.14,4.6s.38,3.16,1.14,4.31c.76,1.15,1.96,1.73,3.61,1.73,1.81,0,3.05-.68,3.72-2.05s1.01-2.89,1.01-4.56Z"/>
    <path class="cls-1" d="M753.7,32.29c.51.35,1.04.87,1.57,1.54v-2.04h2.51v14.74c0,2.06-.3,3.68-.91,4.87-1.13,2.2-3.26,3.3-6.4,3.3-1.75,0-3.21-.39-4.4-1.17-1.19-.78-1.86-2-2-3.67h2.77c.13.73.39,1.29.79,1.68.62.6,1.58.91,2.91.91,2.09,0,3.45-.74,4.1-2.21.38-.87.56-2.42.53-4.65-.54.83-1.2,1.44-1.97,1.85-.77.4-1.78.61-3.04.61-1.76,0-3.29-.62-4.61-1.87-1.32-1.25-1.97-3.31-1.97-6.18,0-2.71.66-4.83,1.99-6.35s2.93-2.28,4.8-2.28c1.27,0,2.38.31,3.33.94ZM750.86,33.77c-1.92,0-3.23.9-3.94,2.69-.37.96-.56,2.21-.56,3.76,0,1.82.37,3.21,1.11,4.16.74.95,1.74,1.43,2.99,1.43,1.96,0,3.34-.88,4.14-2.64.44-1,.67-2.16.67-3.49,0-2-.41-3.49-1.24-4.46-.83-.97-1.88-1.45-3.17-1.45Z"/>
    <path class="cls-1" d="M761.96,31.64h2.59v2.8c.21-.54.73-1.21,1.56-1.99.83-.78,1.78-1.17,2.86-1.17.05,0,.14,0,.26.02.12.01.33.03.62.06v2.87c-.16-.03-.31-.05-.45-.06-.14-.01-.29-.02-.45-.02-1.37,0-2.43.44-3.16,1.32s-1.1,1.9-1.1,3.05v9.32h-2.72v-16.2Z"/>
    <path class="cls-1" d="M780.89,38.02c.62-.08,1.04-.34,1.26-.79.12-.24.18-.59.18-1.04,0-.93-.33-1.6-.99-2.02-.66-.42-1.61-.63-2.84-.63-1.42,0-2.43.38-3.03,1.15-.33.42-.55,1.05-.65,1.89h-2.54c.05-2,.7-3.39,1.94-4.17,1.25-.78,2.69-1.17,4.33-1.17,1.91,0,3.46.36,4.65,1.09,1.18.73,1.77,1.86,1.77,3.39v9.34c0,.28.06.51.17.68.12.17.36.26.73.26.12,0,.26,0,.41-.02s.31-.04.48-.07v2.01c-.42.12-.75.2-.97.23s-.52.05-.91.05c-.94,0-1.62-.33-2.04-1-.22-.35-.38-.85-.47-1.5-.55.73-1.35,1.36-2.39,1.89-1.04.53-2.18.8-3.43.8-1.5,0-2.73-.46-3.68-1.37-.95-.91-1.43-2.06-1.43-3.43,0-1.5.47-2.67,1.41-3.5.94-.83,2.17-1.34,3.69-1.53l4.34-.54ZM777.19,46.07c.96,0,1.89-.22,2.78-.67,1.51-.74,2.27-1.94,2.27-3.62v-2.19c-.33.21-.76.39-1.29.53-.53.14-1.04.24-1.54.3l-1.65.21c-.99.13-1.73.34-2.22.62-.84.47-1.26,1.23-1.26,2.27,0,.79.29,1.41.86,1.86.58.45,1.26.68,2.04.68Z"/>
    <path class="cls-1" d="M789.44,31.64h2.69v2.3c.65-.8,1.23-1.38,1.76-1.74.9-.61,1.92-.92,3.06-.92,1.29,0,2.33.32,3.12.95.44.36.85.9,1.21,1.6.6-.87,1.31-1.51,2.13-1.93.82-.42,1.73-.63,2.75-.63,2.18,0,3.66.79,4.44,2.36.42.85.63,1.99.63,3.42v10.79h-2.83v-11.26c0-1.08-.27-1.82-.81-2.22-.54-.4-1.2-.6-1.97-.6-1.07,0-1.99.36-2.75,1.07s-1.16,1.91-1.16,3.59v9.43h-2.78v-10.58c0-1.1-.13-1.9-.39-2.41-.41-.76-1.19-1.13-2.32-1.13-1.03,0-1.96.4-2.81,1.2-.84.8-1.26,2.24-1.26,4.33v8.59h-2.72v-16.2Z"/>
    <path class="cls-1" d="M815.25,31.64h2.69v2.3c.65-.8,1.23-1.38,1.76-1.74.9-.61,1.92-.92,3.06-.92,1.29,0,2.33.32,3.12.95.44.36.85.9,1.21,1.6.6-.87,1.31-1.51,2.13-1.93.82-.42,1.73-.63,2.75-.63,2.18,0,3.66.79,4.44,2.36.42.85.63,1.99.63,3.42v10.79h-2.83v-11.26c0-1.08-.27-1.82-.81-2.22-.54-.4-1.2-.6-1.97-.6-1.07,0-1.99.36-2.75,1.07s-1.16,1.91-1.16,3.59v9.43h-2.78v-10.58c0-1.1-.13-1.9-.39-2.41-.41-.76-1.19-1.13-2.32-1.13-1.03,0-1.96.4-2.81,1.2-.84.8-1.26,2.24-1.26,4.33v8.59h-2.72v-16.2Z"/>
    <path class="cls-1" d="M842.42,28.88c-.33,0-.64-.04-.93-.12-.29-.08-.53-.2-.73-.35s-.36-.33-.48-.53c-.12-.2-.17-.42-.17-.67s.06-.49.18-.71c.12-.22.29-.41.49-.58.21-.16.45-.29.73-.38.28-.09.58-.14.91-.14s.62.05.9.14c.28.09.52.22.73.38.21.16.37.35.49.58.12.22.18.46.18.71s-.06.46-.17.67c-.12.2-.27.38-.48.53s-.44.27-.73.35c-.28.08-.59.12-.92.12ZM841.06,31.71h2.78v16.13h-2.78v-16.13ZM841.06,31.71h2.78v16.13h-2.78v-16.13Z"/>
    <path class="cls-1" d="M847.94,31.64h2.59v2.3c.77-.95,1.58-1.63,2.44-2.04s1.81-.62,2.86-.62c2.3,0,3.86.8,4.67,2.41.44.88.67,2.13.67,3.77v10.39h-2.78v-10.21c0-.99-.15-1.79-.44-2.39-.48-1.01-1.36-1.51-2.63-1.51-.65,0-1.17.07-1.59.2-.75.22-1.4.67-1.97,1.33-.45.53-.75,1.09-.88,1.66s-.2,1.38-.2,2.44v8.49h-2.72v-16.2Z"/>
    <path class="cls-1" d="M874.22,32.29c.51.35,1.04.87,1.57,1.54v-2.04h2.51v14.74c0,2.06-.3,3.68-.91,4.87-1.13,2.2-3.26,3.3-6.4,3.3-1.75,0-3.21-.39-4.4-1.17-1.19-.78-1.86-2-2-3.67h2.77c.13.73.39,1.29.79,1.68.62.6,1.58.91,2.91.91,2.09,0,3.45-.74,4.1-2.21.38-.87.56-2.42.53-4.65-.54.83-1.2,1.44-1.97,1.85-.77.4-1.78.61-3.04.61-1.76,0-3.29-.62-4.61-1.87-1.32-1.25-1.97-3.31-1.97-6.18,0-2.71.66-4.83,1.99-6.35s2.93-2.28,4.8-2.28c1.27,0,2.38.31,3.33.94ZM871.39,33.77c-1.92,0-3.23.9-3.94,2.69-.37.96-.56,2.21-.56,3.76,0,1.82.37,3.21,1.11,4.16.74.95,1.74,1.43,2.99,1.43,1.96,0,3.34-.88,4.14-2.64.44-1,.67-2.16.67-3.49,0-2-.41-3.49-1.24-4.46-.83-.97-1.88-1.45-3.17-1.45Z"/>
    <path class="cls-1" d="M909.88,32.29h-2.94c-.33-1.44-1-2.58-1.99-3.42-.99-.84-2.39-1.26-4.18-1.26-2.19,0-3.96.77-5.3,2.31s-2.02,3.9-2.02,7.08c0,2.6.61,4.72,1.82,6.34,1.22,1.62,3.03,2.43,5.44,2.43,2.22,0,3.91-.85,5.07-2.56.62-.9,1.07-2.08,1.38-3.54h2.94c-.26,2.34-1.13,4.3-2.6,5.89-1.77,1.91-4.15,2.86-7.14,2.86-2.58,0-4.75-.78-6.51-2.34-2.31-2.07-3.46-5.26-3.46-9.58,0-3.28.87-5.97,2.6-8.06,1.88-2.28,4.46-3.42,7.76-3.42,2.81,0,5,.74,6.55,2.22,1.55,1.48,2.42,3.17,2.59,5.05Z"/>
    <path class="cls-1" d="M927.39,39.4c0,2.61-.64,4.77-1.91,6.48s-3.24,2.56-5.92,2.56c-2.23,0-4-.75-5.31-2.26s-1.97-3.53-1.97-6.07c0-2.72.69-4.89,2.07-6.51,1.38-1.61,3.24-2.42,5.57-2.42,2.09,0,3.85.7,5.3,2.09,1.44,1.39,2.16,3.44,2.16,6.14ZM924.55,39.48c0-1.51-.24-2.74-.73-3.69-.77-1.49-2.09-2.24-3.97-2.24-1.67,0-2.88.64-3.64,1.91-.76,1.27-1.14,2.8-1.14,4.6s.38,3.16,1.14,4.31c.76,1.15,1.96,1.73,3.61,1.73,1.81,0,3.05-.68,3.72-2.05s1.01-2.89,1.01-4.56Z"/>
    <path class="cls-1" d="M930.63,31.64h2.59v2.3c.77-.95,1.58-1.63,2.44-2.04s1.81-.62,2.86-.62c2.3,0,3.86.8,4.67,2.41.44.88.67,2.13.67,3.77v10.39h-2.78v-10.21c0-.99-.15-1.79-.44-2.39-.48-1.01-1.36-1.51-2.63-1.51-.65,0-1.17.07-1.59.2-.75.22-1.4.67-1.97,1.33-.45.53-.75,1.09-.88,1.66s-.2,1.38-.2,2.44v8.49h-2.72v-16.2Z"/>
    <path class="cls-1" d="M948.41,27.11h2.75v4.52h2.59v2.22h-2.59v10.58c0,.56.19.94.57,1.13.21.11.57.17,1.06.17.13,0,.27,0,.42,0,.15,0,.33-.02.53-.04v2.15c-.31.09-.64.16-.98.2-.34.04-.7.06-1.1.06-1.27,0-2.13-.33-2.59-.98-.45-.65-.68-1.5-.68-2.53v-10.73h-2.19v-2.22h2.19v-4.52Z"/>
    <path class="cls-1" d="M969.03,34.18c.54.82.91,1.77,1.09,2.86.16.75.24,1.94.24,3.57h-11.88c.05,1.64.44,2.96,1.17,3.96.73.99,1.85,1.49,3.37,1.49,1.42,0,2.56-.47,3.4-1.41.48-.54.83-1.17,1.03-1.89h2.68c-.07.6-.3,1.26-.7,1.99-.4.73-.84,1.33-1.34,1.79-.83.81-1.85,1.35-3.07,1.63-.66.16-1.4.24-2.22.24-2.02,0-3.73-.73-5.13-2.2s-2.1-3.52-2.1-6.17.71-4.72,2.12-6.34c1.41-1.62,3.26-2.44,5.54-2.44,1.15,0,2.26.27,3.34.81s1.9,1.24,2.47,2.1ZM967.56,38.45c-.11-1.18-.37-2.12-.77-2.83-.75-1.31-1.99-1.97-3.74-1.97-1.25,0-2.3.45-3.15,1.35-.85.9-1.3,2.05-1.35,3.44h9Z"/>
    <path class="cls-1" d="M975.34,42.76c.08.91.31,1.6.68,2.09.68.88,1.87,1.32,3.56,1.32,1.01,0,1.89-.22,2.66-.66.76-.44,1.15-1.12,1.15-2.04,0-.7-.31-1.23-.92-1.59-.39-.22-1.17-.48-2.33-.77l-2.16-.54c-1.38-.34-2.4-.73-3.06-1.15-1.17-.74-1.76-1.76-1.76-3.06,0-1.53.55-2.77,1.67-3.72,1.11-.95,2.6-1.42,4.46-1.42,2.44,0,4.2.72,5.28,2.15.68.91,1,1.89.98,2.94h-2.57c-.05-.62-.27-1.18-.65-1.68-.62-.72-1.71-1.07-3.25-1.07-1.03,0-1.81.2-2.34.59-.53.39-.79.91-.79,1.56,0,.71.35,1.27,1.04,1.69.4.25,1,.47,1.78.67l1.8.44c1.95.47,3.26.93,3.93,1.38,1.06.7,1.59,1.79,1.59,3.28s-.55,2.69-1.64,3.74-2.76,1.57-4.99,1.57c-2.41,0-4.11-.55-5.12-1.64-1-1.09-1.54-2.45-1.61-4.06h2.62Z"/>
    <path class="cls-1" d="M989.74,27.11h2.75v4.52h2.59v2.22h-2.59v10.58c0,.56.19.94.57,1.13.21.11.57.17,1.06.17.13,0,.27,0,.42,0,.15,0,.33-.02.53-.04v2.15c-.31.09-.64.16-.98.2-.34.04-.7.06-1.1.06-1.27,0-2.13-.33-2.59-.98-.45-.65-.68-1.5-.68-2.53v-10.73h-2.19v-2.22h2.19v-4.52Z"/>
  </g>
  <g>
    <path class="cls-1" d="M322.64,69.04v7.75h-13.09v36h-9.2v-36h-13.15v-7.75h35.44Z"/>
    <path class="cls-1" d="M354.61,83.81c.89,1.21,1.43,2.45,1.63,3.72.2,1.28.3,3.36.3,6.25v18.99h-8.64v-19.68c0-1.74-.3-3.15-.89-4.21-.77-1.5-2.24-2.26-4.39-2.26s-3.93.75-5.09,2.24c-1.16,1.49-1.74,3.63-1.74,6.4v17.51h-8.43v-43.6h8.43v15.46c1.23-1.88,2.65-3.19,4.26-3.93,1.61-.74,3.31-1.11,5.09-1.11,2,0,3.81.35,5.45,1.04,1.63.69,2.97,1.75,4.02,3.18Z"/>
    <path class="cls-1" d="M389.8,85.86c1.27,1.92,2.09,4.15,2.46,6.68.22,1.48.31,3.62.27,6.41h-22.14c.12,3.25,1.14,5.52,3.06,6.83,1.17.81,2.57,1.22,4.21,1.22,1.74,0,3.16-.49,4.24-1.48.59-.53,1.12-1.28,1.57-2.23h8.64c-.22,1.92-1.22,3.87-3,5.85-2.77,3.15-6.65,4.72-11.63,4.72-4.12,0-7.75-1.33-10.89-3.98s-4.72-6.96-4.72-12.94c0-5.6,1.42-9.89,4.26-12.88,2.84-2.99,6.52-4.48,11.05-4.48,2.69,0,5.11.5,7.27,1.51,2.16,1.01,3.94,2.6,5.34,4.78ZM370.6,93.37h13.15c-.14-2.24-.82-3.93-2.03-5.09-1.22-1.16-2.73-1.74-4.53-1.74-1.96,0-3.48.61-4.56,1.84-1.08,1.23-1.76,2.89-2.03,4.99Z"/>
    <path class="cls-1" d="M415.06,104.32c1.21-2.87,4.06-5.91,8.55-9.11,3.9-2.79,6.42-4.79,7.57-6,1.76-1.88,2.64-3.94,2.64-6.17,0-1.82-.5-3.33-1.51-4.54-1.01-1.21-2.45-1.81-4.33-1.81-2.57,0-4.32.96-5.25,2.88-.53,1.11-.85,2.87-.95,5.28h-8.22c.14-3.66.8-6.62,1.99-8.87,2.26-4.29,6.26-6.44,12.02-6.44,4.55,0,8.17,1.26,10.86,3.78,2.69,2.52,4.04,5.86,4.04,10.02,0,3.19-.95,6.01-2.85,8.49-1.25,1.64-3.29,3.47-6.14,5.49l-3.38,2.4c-2.12,1.5-3.57,2.59-4.35,3.26-.78.67-1.44,1.45-1.97,2.34h18.79v7.45h-29.47c.08-3.09.74-5.91,1.99-8.46Z"/>
    <path class="cls-1" d="M476.55,91.68c0,7.1-1.1,12.57-3.31,16.41s-6.05,5.76-11.53,5.76-9.32-1.92-11.53-5.76c-2.21-3.84-3.31-9.31-3.31-16.41s1.1-12.58,3.31-16.44c2.21-3.86,6.05-5.79,11.53-5.79s9.32,1.93,11.53,5.79c2.21,3.86,3.31,9.34,3.31,16.44ZM461.71,106.96c2.51,0,4.16-1.31,4.94-3.93.78-2.62,1.17-6.41,1.17-11.35s-.39-9.02-1.17-11.52c-.78-2.49-2.43-3.74-4.94-3.74s-4.17,1.25-4.99,3.74c-.81,2.49-1.22,6.33-1.22,11.52s.41,8.73,1.22,11.35c.81,2.62,2.47,3.93,4.99,3.93Z"/>
    <path class="cls-1" d="M482.67,104.32c1.21-2.87,4.06-5.91,8.55-9.11,3.9-2.79,6.42-4.79,7.57-6,1.76-1.88,2.64-3.94,2.64-6.17,0-1.82-.5-3.33-1.51-4.54-1.01-1.21-2.45-1.81-4.33-1.81-2.57,0-4.32.96-5.25,2.88-.53,1.11-.85,2.87-.95,5.28h-8.22c.14-3.66.8-6.62,1.99-8.87,2.26-4.29,6.26-6.44,12.02-6.44,4.55,0,8.17,1.26,10.86,3.78,2.69,2.52,4.04,5.86,4.04,10.02,0,3.19-.95,6.01-2.85,8.49-1.25,1.64-3.29,3.47-6.14,5.49l-3.38,2.4c-2.12,1.5-3.57,2.59-4.35,3.26-.78.67-1.44,1.45-1.97,2.34h18.79v7.45h-29.47c.08-3.09.74-5.91,1.99-8.46Z"/>
    <path class="cls-1" d="M522.61,101.27c.34,1.84.98,3.26,1.93,4.26.95,1,2.33,1.5,4.15,1.5,2.1,0,3.69-.74,4.79-2.21,1.1-1.47,1.65-3.33,1.65-5.56s-.51-4.05-1.54-5.56c-1.03-1.51-2.63-2.27-4.81-2.27-1.03,0-1.92.13-2.67.39-1.33.48-2.33,1.36-3,2.64l-7.6-.36,3.03-23.77h23.71v7.18h-17.6l-1.54,9.41c1.31-.85,2.32-1.41,3.06-1.69,1.23-.46,2.72-.68,4.48-.68,3.56,0,6.67,1.2,9.32,3.59,2.65,2.39,3.98,5.88,3.98,10.45,0,3.98-1.28,7.53-3.83,10.65-2.55,3.13-6.37,4.69-11.46,4.69-4.1,0-7.46-1.1-10.09-3.29-2.63-2.2-4.1-5.31-4.39-9.35h8.43Z"/>
    <path class="cls-1" d="M576.27,112.78h-9.08v-43.75h9.08v43.75Z"/>
    <path class="cls-1" d="M589.03,73.61c3.56-3.6,8.09-5.4,13.59-5.4,7.36,0,12.74,2.41,16.15,7.24,1.88,2.71,2.89,5.43,3.03,8.16h-9.14c-.59-2.1-1.36-3.68-2.29-4.75-1.66-1.9-4.12-2.85-7.39-2.85s-5.95,1.34-7.86,4.02c-1.92,2.68-2.88,6.47-2.88,11.38s1.01,8.58,3.04,11.03c2.03,2.44,4.6,3.67,7.73,3.67s5.65-1.05,7.33-3.15c.93-1.13,1.7-2.82,2.31-5.08h9.05c-.79,4.77-2.81,8.65-6.07,11.63-3.25,2.99-7.42,4.48-12.51,4.48-6.29,0-11.24-2.02-14.84-6.05-3.6-4.06-5.4-9.62-5.4-16.68,0-7.64,2.05-13.52,6.14-17.66Z"/>
    <path class="cls-1" d="M647.26,97.05h-9.29v15.73h-9.08v-43.75h19.05c4.39,0,7.89,1.13,10.51,3.38,2.61,2.26,3.92,5.75,3.92,10.48,0,5.16-1.31,8.81-3.92,10.95-2.61,2.14-6.34,3.21-11.19,3.21ZM646.49,76.63h-8.52v12.88h8.52c2.16,0,3.83-.52,5.03-1.57s1.8-2.71,1.8-4.99-.6-3.9-1.8-4.87-2.87-1.45-5.03-1.45Z"/>
    <path class="cls-1" d="M673.47,73.61c3.56-3.6,8.09-5.4,13.59-5.4,7.36,0,12.74,2.41,16.15,7.24,1.88,2.71,2.89,5.43,3.03,8.16h-9.14c-.59-2.1-1.36-3.68-2.29-4.75-1.66-1.9-4.12-2.85-7.39-2.85s-5.95,1.34-7.86,4.02c-1.92,2.68-2.88,6.47-2.88,11.38s1.01,8.58,3.04,11.03c2.03,2.44,4.6,3.67,7.73,3.67s5.65-1.05,7.33-3.15c.93-1.13,1.7-2.82,2.31-5.08h9.05c-.79,4.77-2.81,8.65-6.07,11.63-3.25,2.99-7.42,4.48-12.51,4.48-6.29,0-11.24-2.02-14.84-6.05-3.6-4.06-5.4-9.62-5.4-16.68,0-7.64,2.05-13.52,6.14-17.66Z"/>
    <path class="cls-1" d="M735.97,69.04l5.79,25.05,1.25,6.97,1.28-6.83,4.93-25.2h9.65l5.19,25.05,1.34,6.97,1.34-6.71,5.85-25.31h9.29l-12.32,43.75h-8.73l-5.28-25.58-1.54-8.46-1.54,8.46-5.28,25.58h-8.49l-12.41-43.75h9.7Z"/>
    <path class="cls-1" d="M800.2,113.91c-5.56,0-9.7-1.69-12.43-5.06s-4.1-7.43-4.1-12.18,1.37-8.71,4.1-12.14c2.73-3.42,6.88-5.13,12.43-5.13s9.71,1.71,12.44,5.13c2.73,3.42,4.09,7.47,4.09,12.14s-1.36,8.81-4.09,12.18-6.88,5.06-12.44,5.06ZM807.85,96.67c0-3.24-.66-5.74-1.99-7.49-1.33-1.75-3.23-2.63-5.7-2.63s-4.38.88-5.71,2.63c-1.34,1.75-2,4.25-2,7.49s.67,5.75,2,7.51c1.33,1.76,3.24,2.64,5.71,2.64s4.37-.88,5.7-2.64c1.33-1.76,1.99-4.26,1.99-7.51Z"/>
    <path class="cls-1" d="M841.48,79.72v8.67c-.53-.06-1.01-.1-1.42-.12-.42-.02-.75-.03-1.01-.03-3.4,0-5.69,1.11-6.86,3.32-.65,1.25-.98,3.17-.98,5.76v15.46h-8.52v-32.35h8.07v5.64c1.31-2.16,2.44-3.63,3.41-4.42,1.58-1.33,3.64-1.99,6.17-1.99.16,0,.29,0,.4.01.11.01.35.03.73.04Z"/>
    <path class="cls-1" d="M855.07,112.78h-8.46v-43.75h8.46v43.75Z"/>
    <path class="cls-1" d="M884.19,84.53v-15.43h8.58v43.69h-8.22v-4.48c-1.21,1.92-2.58,3.31-4.12,4.18-1.54.87-3.46,1.31-5.76,1.31-3.78,0-6.96-1.53-9.54-4.59-2.58-3.06-3.87-6.98-3.87-11.77,0-5.52,1.27-9.86,3.81-13.03,2.54-3.17,5.94-4.75,10.19-4.75,1.96,0,3.7.43,5.22,1.29s2.76,2.05,3.71,3.58ZM884.42,97.08c0-3.96-1-6.79-3-8.49-1.23-1.03-2.65-1.54-4.27-1.54-2.47,0-4.29.94-5.45,2.8s-1.74,4.19-1.74,6.96c0,2.99.59,5.38,1.77,7.17,1.18,1.79,2.96,2.69,5.36,2.69s4.21-.89,5.46-2.67c1.25-1.78,1.87-4.09,1.87-6.92Z"/>
    <path class="cls-1" d="M918.02,69.09h31.01v7.69h-21.93v10.06h19.2v7.6h-19.2v18.34h-9.08v-43.69Z"/>
    <path class="cls-1" d="M958.83,76.4c-.71,0-1.37-.09-1.97-.27s-1.13-.43-1.57-.74c-.45-.32-.79-.69-1.04-1.13-.25-.44-.37-.91-.37-1.42,0-.55.13-1.07.39-1.54.26-.48.61-.89,1.05-1.23.45-.35.97-.62,1.57-.82.6-.2,1.25-.3,1.94-.3s1.38.1,2,.3c.62.2,1.16.47,1.6.82.45.35.8.76,1.05,1.23.26.47.39.99.39,1.54,0,.52-.12.99-.37,1.42-.25.44-.59.81-1.04,1.13s-.98.56-1.6.74-1.3.27-2.03.27ZM954.58,80.43h8.58v32.35h-8.58v-32.35Z"/>
    <path class="cls-1" d="M1000.67,91v21.78h-8.67v-19.68c0-1.7-.23-3.01-.68-3.92-.83-1.66-2.42-2.49-4.75-2.49-2.87,0-4.84,1.22-5.91,3.65-.55,1.29-.83,2.93-.83,4.93v17.51h-8.43v-32.29h8.16v4.72c1.09-1.66,2.12-2.86,3.09-3.59,1.74-1.31,3.95-1.96,6.62-1.96,3.34,0,6.08.88,8.21,2.63,2.13,1.75,3.19,4.65,3.19,8.71Z"/>
    <path class="cls-1" d="M1021.18,93.1c1.56-.2,2.68-.45,3.35-.74,1.21-.51,1.81-1.32,1.81-2.4,0-1.33-.46-2.24-1.38-2.75-.92-.5-2.27-.76-4.05-.76-2,0-3.41.49-4.24,1.48-.59.73-.99,1.72-1.19,2.97h-8.16c.18-2.83.97-5.15,2.37-6.97,2.24-2.85,6.07-4.27,11.51-4.27,3.54,0,6.69.7,9.44,2.11,2.75,1.41,4.13,4.06,4.13,7.95v14.84c0,1.03.02,2.28.06,3.74.06,1.11.23,1.86.5,2.26.28.4.69.72,1.25.98v1.25h-9.2c-.26-.65-.43-1.27-.53-1.84-.1-.57-.18-1.23-.24-1.96-1.17,1.27-2.51,2.34-4.04,3.23-1.82,1.05-3.88,1.57-6.17,1.57-2.93,0-5.35-.84-7.26-2.51-1.91-1.67-2.86-4.04-2.86-7.11,0-3.98,1.53-6.86,4.6-8.64,1.68-.97,4.15-1.66,7.42-2.08l2.88-.36ZM1026.31,97.05c-.53.34-1.07.61-1.61.82-.54.21-1.29.4-2.23.58l-1.89.36c-1.78.32-3.05.7-3.82,1.16-1.3.77-1.95,1.97-1.95,3.59,0,1.44.4,2.49,1.2,3.13.8.64,1.77.96,2.92.96,1.82,0,3.49-.53,5.02-1.6s2.32-3.02,2.38-5.85v-3.15Z"/>
    <path class="cls-1" d="M1050.92,112.78h-8.46v-43.75h8.46v43.75Z"/>
    <path class="cls-1" d="M1065.76,102.45c.18,1.5.56,2.57,1.16,3.21,1.05,1.13,2.99,1.69,5.82,1.69,1.66,0,2.98-.25,3.96-.74s1.47-1.24,1.47-2.23-.4-1.67-1.19-2.17c-.79-.49-3.73-1.35-8.81-2.55-3.66-.91-6.24-2.05-7.75-3.41-1.5-1.35-2.25-3.28-2.25-5.82,0-2.99,1.17-5.55,3.52-7.7,2.34-2.15,5.64-3.22,9.9-3.22s7.33.81,9.87,2.42c2.54,1.61,4,4.4,4.38,8.35h-8.46c-.12-1.09-.43-1.95-.92-2.58-.93-1.15-2.51-1.72-4.75-1.72-1.84,0-3.15.29-3.93.86-.78.57-1.17,1.25-1.17,2.02,0,.97.42,1.67,1.25,2.11.83.46,3.76,1.24,8.8,2.34,3.36.79,5.88,1.99,7.56,3.59,1.66,1.62,2.49,3.65,2.49,6.08,0,3.21-1.19,5.82-3.57,7.85s-6.06,3.04-11.04,3.04-8.83-1.07-11.25-3.22c-2.42-2.15-3.64-4.88-3.64-8.21h8.58Z"/>
  </g>
  <g>
    <path class="cls-4" d="M1143.3,73.69c1.35,1.86,2.02,4.09,2.02,6.68s-.67,4.82-2.02,6.44c-.75.91-1.86,1.74-3.32,2.49,2.24.81,3.92,2.1,5.06,3.86,1.14,1.76,1.71,3.9,1.71,6.41s-.65,4.92-1.96,6.97c-.83,1.37-1.87,2.51-3.12,3.44-1.41,1.07-3.06,1.8-4.97,2.2-1.91.4-3.98.59-6.22.59h-19.83v-43.75h21.25c5.36.08,9.16,1.63,11.4,4.66ZM1119.38,76.63v9.65h10.74c1.92,0,3.48-.36,4.67-1.08s1.8-2,1.8-3.84c0-2.04-.79-3.38-2.37-4.04-1.37-.45-3.11-.68-5.22-.68h-9.62ZM1119.38,93.52v11.66h10.74c1.92,0,3.41-.26,4.48-.77,1.94-.95,2.91-2.77,2.91-5.46,0-2.27-.94-3.84-2.82-4.69-1.05-.48-2.52-.72-4.42-.74h-10.89Z"/>
    <path class="cls-4" d="M1166.42,93.1c1.56-.2,2.68-.45,3.35-.74,1.21-.51,1.81-1.32,1.81-2.4,0-1.33-.46-2.24-1.38-2.75-.92-.5-2.27-.76-4.05-.76-2,0-3.41.49-4.24,1.48-.59.73-.99,1.72-1.19,2.97h-8.16c.18-2.83.97-5.15,2.37-6.97,2.24-2.85,6.07-4.27,11.51-4.27,3.54,0,6.69.7,9.44,2.11,2.75,1.41,4.13,4.06,4.13,7.95v14.84c0,1.03.02,2.28.06,3.74.06,1.11.23,1.86.5,2.26.28.4.69.72,1.25.98v1.25h-9.2c-.26-.65-.43-1.27-.53-1.84-.1-.57-.18-1.23-.24-1.96-1.17,1.27-2.51,2.34-4.04,3.23-1.82,1.05-3.88,1.57-6.17,1.57-2.93,0-5.35-.84-7.26-2.51-1.91-1.67-2.86-4.04-2.86-7.11,0-3.98,1.53-6.86,4.6-8.64,1.68-.97,4.15-1.66,7.42-2.08l2.88-.36ZM1171.55,97.05c-.53.34-1.07.61-1.61.82-.54.21-1.29.4-2.23.58l-1.89.36c-1.78.32-3.05.7-3.82,1.16-1.3.77-1.95,1.97-1.95,3.59,0,1.44.4,2.49,1.2,3.13.8.64,1.77.96,2.92.96,1.82,0,3.49-.53,5.02-1.6s2.32-3.02,2.38-5.85v-3.15Z"/>
    <path class="cls-4" d="M1187.43,69.18h8.31v23.56l10.54-12.17h10.48l-11.31,12.38,11.75,19.82h-10.21l-7.75-13.83-3.5,3.65v10.18h-8.31v-43.6Z"/>
    <path class="cls-4" d="M1229.75,80.43v19.5c0,1.84.22,3.23.65,4.15.77,1.64,2.29,2.46,4.54,2.46,2.89,0,4.87-1.17,5.94-3.5.55-1.27.83-2.94.83-5.02v-17.6h8.58v32.35h-8.22v-4.57c-.08.1-.28.4-.59.89-.32.5-.69.93-1.13,1.31-1.33,1.19-2.61,2-3.84,2.43-1.24.43-2.69.65-4.35.65-4.79,0-8.01-1.72-9.67-5.16-.93-1.9-1.39-4.7-1.39-8.4v-19.5h8.67Z"/>
  </g>
  <g>
    <path class="cls-3" d="M286.97,146.46h2.84c.12,1.4.38,2.42.79,3.06.71,1.14,1.98,1.71,3.83,1.71,1.43,0,2.58-.38,3.45-1.15s1.3-1.76,1.3-2.97c0-1.49-.46-2.54-1.37-3.13-.91-.59-2.18-.89-3.81-.89-.18,0-.37,0-.55,0-.19,0-.38.01-.57.02v-2.41c.28.03.52.05.71.06.19.01.4.02.62.02,1.02,0,1.86-.16,2.51-.48,1.15-.56,1.73-1.57,1.73-3.03,0-1.08-.38-1.91-1.15-2.5-.77-.58-1.66-.88-2.68-.88-1.82,0-3.07.6-3.77,1.82-.38.67-.6,1.61-.65,2.84h-2.69c0-1.61.32-2.99.97-4.12,1.11-2.02,3.06-3.03,5.86-3.03,2.21,0,3.92.49,5.13,1.48s1.82,2.41,1.82,4.27c0,1.33-.36,2.41-1.07,3.24-.44.51-1.02.92-1.72,1.21,1.14.31,2.03.92,2.67,1.81.64.89.96,1.98.96,3.28,0,2.07-.68,3.75-2.04,5.05-1.36,1.3-3.29,1.95-5.79,1.95s-4.42-.7-5.58-2.11-1.73-3.12-1.73-5.14Z"/>
    <path class="cls-3" d="M306.43,137.78v-2.09c1.97-.19,3.34-.51,4.12-.96.78-.45,1.36-1.51,1.74-3.18h2.15v21.58h-2.9v-15.34h-5.1Z"/>
    <path class="cls-3" d="M336.45,130.89h3.4l8.06,22.23h-3.3l-2.25-6.66h-8.79l-2.41,6.66h-3.09l8.37-22.23ZM341.4,144.01l-3.37-9.82-3.59,9.82h6.96Z"/>
    <path class="cls-3" d="M353.02,136.92v10.75c0,.83.13,1.5.39,2.03.48.97,1.39,1.45,2.71,1.45,1.9,0,3.19-.85,3.87-2.54.37-.91.56-2.15.56-3.73v-7.95h2.72v16.2h-2.57l.03-2.39c-.35.62-.79,1.13-1.32,1.56-1.04.85-2.3,1.27-3.78,1.27-2.31,0-3.88-.77-4.72-2.31-.45-.83-.68-1.93-.68-3.31v-11.01h2.78Z"/>
    <path class="cls-3" d="M376.58,137.57c.51.35,1.04.87,1.57,1.54v-2.04h2.51v14.74c0,2.06-.3,3.68-.91,4.87-1.13,2.2-3.26,3.3-6.4,3.3-1.75,0-3.21-.39-4.4-1.17-1.19-.78-1.86-2-2-3.67h2.77c.13.73.39,1.29.79,1.68.62.6,1.58.91,2.91.91,2.09,0,3.45-.74,4.1-2.21.38-.87.56-2.42.53-4.65-.54.83-1.2,1.44-1.97,1.85-.77.4-1.78.61-3.04.61-1.75,0-3.29-.62-4.61-1.87-1.32-1.25-1.97-3.31-1.97-6.18,0-2.71.66-4.83,1.99-6.35,1.33-1.52,2.93-2.28,4.8-2.28,1.27,0,2.38.31,3.33.94ZM373.74,139.05c-1.92,0-3.23.9-3.94,2.69-.37.96-.56,2.21-.56,3.76,0,1.82.37,3.21,1.11,4.16.74.95,1.74,1.43,2.99,1.43,1.96,0,3.34-.88,4.14-2.64.44-1,.67-2.16.67-3.49,0-2-.41-3.49-1.24-4.46s-1.88-1.45-3.17-1.45Z"/>
    <path class="cls-3" d="M387.48,136.92v10.75c0,.83.13,1.5.39,2.03.48.97,1.39,1.45,2.71,1.45,1.9,0,3.19-.85,3.87-2.54.37-.91.56-2.15.56-3.73v-7.95h2.72v16.2h-2.57l.03-2.39c-.35.62-.79,1.13-1.32,1.56-1.04.85-2.3,1.27-3.78,1.27-2.31,0-3.88-.77-4.72-2.31-.45-.83-.68-1.93-.68-3.31v-11.01h2.78Z"/>
    <path class="cls-3" d="M403.63,148.04c.08.91.31,1.6.68,2.09.68.88,1.87,1.32,3.56,1.32,1.01,0,1.89-.22,2.66-.66.77-.44,1.15-1.12,1.15-2.04,0-.7-.31-1.23-.92-1.59-.39-.22-1.17-.48-2.33-.77l-2.16-.54c-1.38-.34-2.4-.73-3.06-1.15-1.17-.74-1.75-1.76-1.75-3.06,0-1.53.55-2.77,1.66-3.72s2.6-1.42,4.46-1.42c2.44,0,4.2.72,5.28,2.15.68.91,1,1.89.98,2.94h-2.57c-.05-.62-.27-1.18-.65-1.68-.63-.72-1.71-1.07-3.25-1.07-1.03,0-1.81.2-2.34.59-.53.39-.79.91-.79,1.56,0,.71.35,1.27,1.04,1.69.4.25,1,.47,1.78.67l1.8.44c1.95.47,3.26.93,3.93,1.38,1.06.7,1.59,1.79,1.59,3.28s-.55,2.69-1.64,3.74c-1.09,1.05-2.76,1.57-4.99,1.57-2.41,0-4.11-.55-5.12-1.64-1-1.09-1.54-2.45-1.61-4.06h2.62Z"/>
    <path class="cls-3" d="M418.03,132.39h2.75v4.52h2.59v2.22h-2.59v10.58c0,.56.19.94.58,1.13.21.11.56.17,1.06.17.13,0,.27,0,.42,0,.15,0,.33-.02.53-.04v2.15c-.31.09-.64.16-.98.2-.34.04-.7.06-1.1.06-1.27,0-2.13-.33-2.59-.98-.45-.65-.68-1.5-.68-2.53v-10.73h-2.19v-2.22h2.19v-4.52Z"/>
    <path class="cls-3" d="M432.63,143.44h17.35v2.22h-17.35v-2.22Z"/>
    <path class="cls-3" d="M462.38,147.6c.18,1.55.9,2.63,2.16,3.22.65.3,1.39.45,2.24.45,1.61,0,2.81-.51,3.59-1.54s1.17-2.17,1.17-3.42c0-1.51-.46-2.68-1.38-3.51-.92-.83-2.03-1.24-3.32-1.24-.94,0-1.74.18-2.41.54s-1.24.87-1.72,1.51l-2.36-.14,1.65-11.67h11.26v2.63h-9.21l-.92,6.02c.5-.38.98-.67,1.44-.86.81-.33,1.74-.5,2.8-.5,1.99,0,3.67.64,5.05,1.92,1.38,1.28,2.07,2.9,2.07,4.87s-.63,3.85-1.9,5.42c-1.27,1.56-3.29,2.35-6.06,2.35-1.77,0-3.33-.5-4.68-1.49-1.36-.99-2.12-2.52-2.28-4.58h2.83Z"/>
    <path class="cls-3" d="M488.72,145.95c.07,1.26.37,2.28.89,3.07,1,1.47,2.76,2.21,5.28,2.21,1.13,0,2.16-.16,3.09-.48,1.79-.62,2.69-1.74,2.69-3.36,0-1.21-.38-2.07-1.13-2.59-.77-.5-1.97-.94-3.6-1.32l-3.01-.68c-1.97-.44-3.36-.93-4.18-1.47-1.41-.93-2.12-2.31-2.12-4.16,0-2,.69-3.64,2.07-4.92,1.38-1.28,3.34-1.92,5.87-1.92,2.33,0,4.31.56,5.94,1.69,1.63,1.12,2.44,2.92,2.44,5.39h-2.83c-.15-1.19-.47-2.1-.97-2.74-.92-1.16-2.48-1.74-4.67-1.74-1.78,0-3.05.37-3.83,1.12-.78.75-1.17,1.61-1.17,2.6,0,1.09.45,1.89,1.36,2.39.6.32,1.94.73,4.04,1.21l3.12.71c1.5.34,2.66.81,3.48,1.41,1.41,1.04,2.12,2.55,2.12,4.52,0,2.46-.9,4.22-2.69,5.28s-3.87,1.59-6.24,1.59c-2.76,0-4.93-.71-6.49-2.12-1.56-1.4-2.33-3.3-2.3-5.7h2.83Z"/>
    <path class="cls-3" d="M519.61,139.46c.54.82.91,1.77,1.09,2.86.16.75.24,1.94.24,3.57h-11.88c.05,1.64.44,2.96,1.17,3.96.73.99,1.85,1.49,3.37,1.49,1.42,0,2.56-.47,3.4-1.41.48-.54.83-1.17,1.03-1.89h2.68c-.07.6-.31,1.26-.7,1.99-.4.73-.85,1.33-1.34,1.79-.83.81-1.85,1.35-3.07,1.63-.66.16-1.4.24-2.22.24-2.02,0-3.73-.73-5.13-2.2s-2.1-3.52-2.1-6.17.71-4.72,2.12-6.34,3.26-2.44,5.54-2.44c1.15,0,2.26.27,3.34.81,1.08.54,1.9,1.24,2.47,2.1ZM518.15,143.72c-.11-1.18-.37-2.12-.77-2.83-.75-1.31-1.99-1.97-3.74-1.97-1.25,0-2.3.45-3.15,1.35-.85.9-1.3,2.05-1.35,3.44h9Z"/>
    <path class="cls-3" d="M524.08,136.99h2.65v2.15c.54-.74,1.14-1.31,1.79-1.71.92-.6,2-.91,3.24-.91,1.84,0,3.39.7,4.68,2.11,1.28,1.41,1.92,3.42,1.92,6.03,0,3.53-.92,6.05-2.77,7.56-1.17.96-2.53,1.44-4.08,1.44-1.22,0-2.24-.27-3.07-.8-.48-.3-1.02-.82-1.62-1.56v8.28h-2.72v-22.59ZM535.56,144.92c0-1.29-.19-2.4-.56-3.33-.71-1.79-2-2.68-3.87-2.68s-3.18.94-3.87,2.83c-.37,1.01-.56,2.29-.56,3.84,0,1.25.19,2.31.56,3.19.71,1.67,2,2.51,3.87,2.51,1.27,0,2.33-.53,3.17-1.6.84-1.06,1.26-2.66,1.26-4.77Z"/>
    <path class="cls-3" d="M542.07,132.39h2.75v4.52h2.59v2.22h-2.59v10.58c0,.56.19.94.58,1.13.21.11.56.17,1.06.17.13,0,.27,0,.42,0,.15,0,.33-.02.53-.04v2.15c-.31.09-.64.16-.98.2-.34.04-.7.06-1.1.06-1.27,0-2.13-.33-2.59-.98-.45-.65-.68-1.5-.68-2.53v-10.73h-2.19v-2.22h2.19v-4.52Z"/>
    <path class="cls-3" d="M562.69,139.46c.54.82.91,1.77,1.09,2.86.16.75.24,1.94.24,3.57h-11.88c.05,1.64.44,2.96,1.17,3.96.73.99,1.85,1.49,3.37,1.49,1.42,0,2.56-.47,3.4-1.41.48-.54.83-1.17,1.03-1.89h2.68c-.07.6-.31,1.26-.7,1.99-.4.73-.85,1.33-1.34,1.79-.83.81-1.85,1.35-3.07,1.63-.66.16-1.4.24-2.22.24-2.02,0-3.73-.73-5.13-2.2s-2.1-3.52-2.1-6.17.71-4.72,2.12-6.34,3.26-2.44,5.54-2.44c1.15,0,2.26.27,3.34.81,1.08.54,1.9,1.24,2.47,2.1ZM561.22,143.72c-.11-1.18-.37-2.12-.77-2.83-.75-1.31-1.99-1.97-3.74-1.97-1.25,0-2.3.45-3.15,1.35-.85.9-1.3,2.05-1.35,3.44h9Z"/>
    <path class="cls-3" d="M567.36,136.92h2.69v2.3c.65-.8,1.23-1.38,1.76-1.74.9-.61,1.92-.92,3.06-.92,1.29,0,2.33.32,3.12.95.44.36.85.9,1.21,1.6.6-.87,1.31-1.51,2.13-1.93.82-.42,1.73-.63,2.75-.63,2.18,0,3.66.79,4.44,2.36.42.85.63,1.99.63,3.42v10.79h-2.83v-11.26c0-1.08-.27-1.82-.81-2.22-.54-.4-1.2-.6-1.97-.6-1.07,0-1.99.36-2.75,1.07s-1.16,1.91-1.16,3.59v9.43h-2.78v-10.58c0-1.1-.13-1.9-.39-2.41-.41-.76-1.19-1.13-2.32-1.13-1.03,0-1.96.4-2.81,1.2-.84.8-1.26,2.24-1.26,4.33v8.59h-2.72v-16.2Z"/>
    <path class="cls-3" d="M592.96,130.82h2.65v8.05c.6-.77,1.31-1.36,2.13-1.77.83-.41,1.72-.61,2.69-.61,2.02,0,3.65.69,4.91,2.08s1.88,3.43,1.88,6.14c0,2.56-.62,4.69-1.86,6.38-1.24,1.69-2.96,2.54-5.16,2.54-1.23,0-2.27-.3-3.12-.89-.5-.35-1.04-.92-1.62-1.69v2.07h-2.51v-22.3ZM604.45,144.83c0-1.7-.37-3.12-1.1-4.24-.73-1.12-1.81-1.68-3.23-1.68-1.24,0-2.33.46-3.26,1.38-.93.92-1.4,2.43-1.4,4.54,0,1.52.19,2.76.57,3.71.72,1.79,2.05,2.68,4.01,2.68,1.47,0,2.57-.58,3.31-1.76.73-1.17,1.1-2.71,1.1-4.63Z"/>
    <path class="cls-3" d="M622.97,139.46c.54.82.91,1.77,1.09,2.86.16.75.24,1.94.24,3.57h-11.88c.05,1.64.44,2.96,1.17,3.96.73.99,1.85,1.49,3.37,1.49,1.42,0,2.56-.47,3.4-1.41.48-.54.83-1.17,1.03-1.89h2.68c-.07.6-.3,1.26-.7,1.99-.4.73-.84,1.33-1.34,1.79-.83.81-1.85,1.35-3.07,1.63-.66.16-1.4.24-2.22.24-2.02,0-3.73-.73-5.13-2.2s-2.1-3.52-2.1-6.17.71-4.72,2.12-6.34c1.41-1.62,3.26-2.44,5.54-2.44,1.15,0,2.26.27,3.34.81s1.9,1.24,2.47,2.1ZM621.5,143.72c-.11-1.18-.37-2.12-.77-2.83-.75-1.31-1.99-1.97-3.74-1.97-1.25,0-2.3.45-3.15,1.35-.85.9-1.3,2.05-1.35,3.44h9Z"/>
    <path class="cls-3" d="M627.72,136.92h2.59v2.8c.21-.54.73-1.21,1.56-1.99.83-.78,1.78-1.17,2.86-1.17.05,0,.14,0,.26.02.12.01.33.03.62.06v2.87c-.16-.03-.31-.05-.45-.06-.14-.01-.29-.02-.45-.02-1.37,0-2.43.44-3.16,1.32s-1.1,1.9-1.1,3.05v9.32h-2.72v-16.2Z"/>
    <path class="cls-3" d="M650.62,144.48l2.91-1.68c1.3-.76,2.21-1.4,2.74-1.94.83-.84,1.24-1.79,1.24-2.87,0-1.26-.38-2.26-1.13-3-.76-.74-1.77-1.11-3.03-1.11-1.87,0-3.16.71-3.87,2.12-.38.76-.6,1.81-.64,3.15h-2.77c.03-1.89.38-3.42,1.04-4.61,1.18-2.1,3.26-3.15,6.25-3.15,2.48,0,4.29.67,5.44,2.01,1.14,1.34,1.72,2.83,1.72,4.48,0,1.73-.61,3.22-1.83,4.45-.71.72-1.97,1.58-3.8,2.6l-2.07,1.15c-.99.54-1.77,1.06-2.33,1.56-1.01.88-1.64,1.85-1.91,2.92h11.83v2.57h-14.87c.1-1.87.49-3.49,1.16-4.87.67-1.38,1.98-2.64,3.93-3.77Z"/>
    <path class="cls-3" d="M676.27,134.92c.97,1.79,1.45,4.23,1.45,7.34,0,2.95-.44,5.38-1.32,7.31-1.27,2.76-3.35,4.15-6.23,4.15-2.6,0-4.54-1.13-5.81-3.39-1.06-1.89-1.59-4.42-1.59-7.6,0-2.46.32-4.57.95-6.34,1.19-3.29,3.34-4.93,6.46-4.93,2.8,0,4.83,1.15,6.08,3.46ZM674.79,142.36c0-2.46-.3-4.49-.91-6.07-.6-1.59-1.78-2.38-3.52-2.38-1.6,0-2.78.75-3.52,2.26-.74,1.51-1.11,3.73-1.11,6.66,0,2.21.24,3.98.71,5.33.73,2.05,1.97,3.07,3.72,3.07,1.41,0,2.54-.63,3.37-1.88.84-1.25,1.26-3.58,1.26-6.99Z"/>
    <path class="cls-3" d="M685.09,144.48l2.91-1.68c1.3-.76,2.21-1.4,2.74-1.94.83-.84,1.24-1.79,1.24-2.87,0-1.26-.38-2.26-1.13-3-.76-.74-1.77-1.11-3.03-1.11-1.87,0-3.16.71-3.87,2.12-.38.76-.6,1.81-.64,3.15h-2.77c.03-1.89.38-3.42,1.04-4.61,1.18-2.1,3.26-3.15,6.25-3.15,2.48,0,4.29.67,5.44,2.01,1.14,1.34,1.72,2.83,1.72,4.48,0,1.73-.61,3.22-1.83,4.45-.71.72-1.97,1.58-3.8,2.6l-2.07,1.15c-.99.54-1.77,1.06-2.33,1.56-1.01.88-1.64,1.85-1.91,2.92h11.83v2.57h-14.87c.1-1.87.49-3.49,1.16-4.87.67-1.38,1.98-2.64,3.93-3.77Z"/>
    <path class="cls-3" d="M700.1,147.6c.18,1.55.9,2.63,2.16,3.22.65.3,1.39.45,2.24.45,1.61,0,2.81-.51,3.59-1.54s1.17-2.17,1.17-3.42c0-1.51-.46-2.68-1.38-3.51-.92-.83-2.03-1.24-3.32-1.24-.94,0-1.74.18-2.41.54-.67.36-1.24.87-1.72,1.51l-2.36-.14,1.65-11.67h11.26v2.63h-9.21l-.92,6.02c.5-.38.98-.67,1.44-.86.81-.33,1.74-.5,2.8-.5,1.99,0,3.67.64,5.05,1.92,1.38,1.28,2.07,2.9,2.07,4.87s-.63,3.85-1.9,5.42-3.29,2.35-6.06,2.35c-1.76,0-3.33-.5-4.68-1.49-1.36-.99-2.12-2.52-2.28-4.58h2.83Z"/>
  </g>
  <g>
    <path class="cls-1" d="M729.14,130.89h2.3l-7.05,22.23h-2.3l7.05-22.23Z"/>
    <path class="cls-1" d="M737.75,130.89h2.3l-7.05,22.23h-2.3l7.05-22.23Z"/>
    <path class="cls-1" d="M749.92,130.82h2.72v8.29c.64-.82,1.22-1.39,1.74-1.73.88-.57,1.97-.86,3.28-.86,2.35,0,3.94.82,4.77,2.47.45.9.68,2.14.68,3.74v10.39h-2.78v-10.22c0-1.19-.15-2.06-.45-2.62-.5-.89-1.42-1.33-2.78-1.33-1.13,0-2.15.39-3.07,1.17-.92.78-1.38,2.25-1.38,4.41v8.6h-2.72v-22.3Z"/>
    <path class="cls-1" d="M781.14,144.68c0,2.61-.64,4.77-1.91,6.48s-3.24,2.56-5.92,2.56c-2.23,0-4-.75-5.31-2.26s-1.97-3.53-1.97-6.07c0-2.72.69-4.89,2.07-6.51,1.38-1.61,3.24-2.42,5.57-2.42,2.09,0,3.85.7,5.3,2.09,1.44,1.39,2.16,3.44,2.16,6.14ZM778.3,144.75c0-1.51-.24-2.74-.73-3.69-.77-1.49-2.09-2.24-3.97-2.24-1.67,0-2.88.64-3.64,1.91-.76,1.27-1.14,2.8-1.14,4.6s.38,3.16,1.14,4.31c.76,1.15,1.96,1.73,3.61,1.73,1.81,0,3.05-.68,3.72-2.05s1.01-2.89,1.01-4.56Z"/>
    <path class="cls-1" d="M786.02,148.04c.08.91.31,1.6.68,2.09.68.88,1.87,1.32,3.56,1.32,1.01,0,1.89-.22,2.66-.66.76-.44,1.15-1.12,1.15-2.04,0-.7-.31-1.23-.92-1.59-.39-.22-1.17-.48-2.33-.77l-2.16-.54c-1.38-.34-2.4-.73-3.06-1.15-1.17-.74-1.76-1.76-1.76-3.06,0-1.53.55-2.77,1.67-3.72,1.11-.95,2.6-1.42,4.46-1.42,2.44,0,4.2.72,5.28,2.15.68.91,1,1.89.98,2.94h-2.57c-.05-.62-.27-1.18-.65-1.68-.62-.72-1.71-1.07-3.25-1.07-1.03,0-1.81.2-2.34.59-.53.39-.79.91-.79,1.56,0,.71.35,1.27,1.04,1.69.4.25,1,.47,1.78.67l1.8.44c1.95.47,3.26.93,3.93,1.38,1.06.7,1.59,1.79,1.59,3.28s-.55,2.69-1.64,3.74-2.76,1.57-4.99,1.57c-2.41,0-4.11-.55-5.12-1.64-1-1.09-1.54-2.45-1.61-4.06h2.62Z"/>
    <path class="cls-1" d="M800.42,132.39h2.75v4.52h2.59v2.22h-2.59v10.58c0,.56.19.94.57,1.13.21.11.57.17,1.06.17.13,0,.27,0,.42,0,.15,0,.33-.02.53-.04v2.15c-.31.09-.64.16-.98.2-.34.04-.7.06-1.1.06-1.27,0-2.13-.33-2.59-.98-.45-.65-.68-1.5-.68-2.53v-10.73h-2.19v-2.22h2.19v-4.52Z"/>
    <path class="cls-1" d="M821.04,139.46c.54.82.91,1.77,1.09,2.86.16.75.24,1.94.24,3.57h-11.88c.05,1.64.44,2.96,1.17,3.96.73.99,1.85,1.49,3.37,1.49,1.42,0,2.56-.47,3.4-1.41.48-.54.83-1.17,1.03-1.89h2.68c-.07.6-.3,1.26-.7,1.99-.4.73-.84,1.33-1.34,1.79-.83.81-1.85,1.35-3.07,1.63-.66.16-1.4.24-2.22.24-2.02,0-3.73-.73-5.13-2.2s-2.1-3.52-2.1-6.17.71-4.72,2.12-6.34c1.41-1.62,3.26-2.44,5.54-2.44,1.15,0,2.26.27,3.34.81s1.9,1.24,2.47,2.1ZM819.57,143.72c-.11-1.18-.37-2.12-.77-2.83-.75-1.31-1.99-1.97-3.74-1.97-1.25,0-2.3.45-3.15,1.35-.85.9-1.3,2.05-1.35,3.44h9Z"/>
    <path class="cls-1" d="M834.66,137.41c.48.3,1.03.83,1.65,1.59v-8.19h2.62v22.3h-2.45v-2.25c-.64,1-1.39,1.72-2.25,2.16s-1.86.67-2.98.67c-1.81,0-3.37-.76-4.69-2.28s-1.98-3.54-1.98-6.06c0-2.36.6-4.41,1.81-6.14,1.21-1.73,2.93-2.59,5.17-2.59,1.24,0,2.28.26,3.12.79ZM832.09,151.32c1.26,0,2.3-.54,3.11-1.63.81-1.08,1.22-2.64,1.22-4.67s-.42-3.56-1.26-4.55c-.84-.98-1.87-1.48-3.1-1.48-1.37,0-2.48.52-3.34,1.57-.85,1.05-1.28,2.59-1.28,4.63,0,1.73.37,3.19,1.1,4.36.74,1.17,1.92,1.76,3.54,1.76Z"/>
    <path class="cls-1" d="M851.35,130.82h2.65v8.05c.6-.77,1.31-1.36,2.13-1.77.83-.41,1.72-.61,2.69-.61,2.02,0,3.65.69,4.91,2.08s1.88,3.43,1.88,6.14c0,2.56-.62,4.69-1.86,6.38-1.24,1.69-2.96,2.54-5.16,2.54-1.23,0-2.27-.3-3.12-.89-.5-.35-1.04-.92-1.62-1.69v2.07h-2.51v-22.3ZM862.83,144.83c0-1.7-.37-3.12-1.1-4.24-.73-1.12-1.81-1.68-3.23-1.68-1.24,0-2.33.46-3.26,1.38-.93.92-1.4,2.43-1.4,4.54,0,1.52.19,2.76.57,3.71.72,1.79,2.05,2.68,4.01,2.68,1.47,0,2.57-.58,3.31-1.76.73-1.17,1.1-2.71,1.1-4.63Z"/>
    <path class="cls-1" d="M878.91,136.92h3.01c-.38,1.04-1.24,3.41-2.56,7.11-.99,2.78-1.82,5.05-2.48,6.81-1.57,4.14-2.68,6.66-3.33,7.56s-1.75,1.36-3.33,1.36c-.38,0-.68-.02-.88-.05-.21-.03-.46-.09-.76-.17v-2.48c.47.12.82.2,1.03.23s.4.04.56.04c.5,0,.88-.08,1.11-.25.24-.17.44-.37.6-.61.05-.08.23-.49.54-1.24.31-.75.54-1.3.68-1.66l-5.99-16.66h3.09l4.34,13.19,4.37-13.19Z"/>
  </g>
  <g>
    <path class="cls-1" d="M899.64,130.82h5.27l7.9,22.3h-5.05l-1.44-4.58h-8.21l-1.54,4.58h-4.87l7.96-22.3ZM899.35,144.69h5.66l-2.78-8.78-2.87,8.78Z"/>
    <path class="cls-1" d="M928.69,131.3c1.56.51,2.83,1.46,3.8,2.83.78,1.11,1.31,2.31,1.59,3.6.28,1.29.42,2.52.42,3.69,0,2.97-.6,5.48-1.79,7.53-1.61,2.77-4.11,4.16-7.47,4.16h-9.61v-22.3h9.61c1.38.02,2.53.18,3.45.48ZM920.16,134.69v14.56h4.3c2.2,0,3.73-1.08,4.6-3.25.47-1.19.71-2.61.71-4.25,0-2.27-.36-4.01-1.07-5.23s-2.13-1.82-4.24-1.82h-4.3Z"/>
    <path class="cls-1" d="M944.4,130.82h5.27l7.9,22.3h-5.05l-1.44-4.58h-8.21l-1.54,4.58h-4.87l7.96-22.3ZM944.11,144.69h5.66l-2.78-8.78-2.87,8.78Z"/>
    <path class="cls-1" d="M967.88,130.82h4.74v13.71c0,1.53.18,2.65.54,3.36.56,1.25,1.79,1.88,3.69,1.88s3.11-.63,3.68-1.88c.36-.71.54-1.83.54-3.36v-13.71h4.74v13.71c0,2.37-.37,4.22-1.1,5.54-1.37,2.42-3.99,3.63-7.85,3.63s-6.49-1.21-7.87-3.63c-.74-1.32-1.1-3.17-1.1-5.54v-13.71Z"/>
    <path class="cls-1" d="M1004.86,142.01v11.11h-4.42v-10.03c0-.87-.12-1.53-.35-2-.42-.85-1.23-1.27-2.42-1.27-1.46,0-2.47.62-3.01,1.86-.28.66-.42,1.49-.42,2.51v8.93h-4.3v-16.46h4.16v2.41c.55-.85,1.08-1.46,1.57-1.83.89-.67,2.01-1,3.37-1,1.71,0,3.1.45,4.18,1.34s1.63,2.37,1.63,4.44Z"/>
    <path class="cls-1" d="M1011.06,134.57c-.36,0-.7-.05-1.01-.14s-.58-.22-.8-.38c-.23-.16-.4-.35-.53-.57-.13-.22-.19-.46-.19-.73,0-.28.07-.54.2-.79.13-.24.31-.45.54-.63.23-.18.49-.31.8-.42.31-.1.64-.15.99-.15s.7.05,1.02.15c.32.1.59.24.82.42.23.18.41.39.54.63.13.24.2.5.2.79,0,.26-.06.5-.19.73-.13.22-.3.41-.53.57-.23.16-.5.29-.82.38-.32.09-.66.14-1.04.14ZM1008.9,136.63h4.37v16.49h-4.37v-16.49Z"/>
    <path class="cls-1" d="M1027.62,136.63h4.63l-5.95,16.49h-4.55l-5.92-16.49h4.84l3.43,12.16,3.51-12.16Z"/>
    <path class="cls-1" d="M1047.62,139.4c.65.98,1.06,2.11,1.26,3.4.11.76.16,1.85.14,3.27h-11.29c.06,1.65.58,2.81,1.56,3.48.6.41,1.31.62,2.15.62.89,0,1.61-.25,2.16-.76.3-.27.57-.65.8-1.13h4.4c-.11.98-.62,1.97-1.53,2.98-1.41,1.6-3.39,2.41-5.93,2.41-2.1,0-3.95-.68-5.55-2.03-1.6-1.35-2.41-3.55-2.41-6.6,0-2.85.72-5.04,2.17-6.57,1.45-1.52,3.33-2.28,5.64-2.28,1.37,0,2.61.26,3.71.77,1.1.51,2.01,1.33,2.72,2.44ZM1037.83,143.22h6.7c-.07-1.14-.42-2-1.04-2.59-.62-.59-1.39-.89-2.31-.89-1,0-1.77.31-2.32.94-.55.63-.89,1.47-1.04,2.54Z"/>
    <path class="cls-1" d="M1061.45,136.26v4.42c-.27-.03-.51-.05-.73-.06-.21,0-.38-.02-.51-.02-1.74,0-2.9.57-3.5,1.69-.33.64-.5,1.61-.5,2.94v7.88h-4.34v-16.49h4.12v2.87c.67-1.1,1.25-1.85,1.74-2.25.81-.68,1.86-1.01,3.15-1.01.08,0,.15,0,.21,0,.05,0,.18.01.37.02Z"/>
    <path class="cls-1" d="M1067.33,147.85c.09.77.29,1.31.59,1.63.54.58,1.52.86,2.97.86.85,0,1.52-.13,2.02-.38.5-.25.75-.63.75-1.13s-.2-.85-.61-1.1c-.4-.25-1.9-.69-4.49-1.3-1.87-.46-3.18-1.04-3.95-1.74-.77-.69-1.15-1.67-1.15-2.97,0-1.52.6-2.83,1.79-3.93,1.2-1.09,2.88-1.64,5.05-1.64,2.06,0,3.73.41,5.03,1.23,1.3.82,2.04,2.24,2.23,4.26h-4.31c-.06-.55-.22-.99-.47-1.32-.47-.58-1.28-.88-2.42-.88-.94,0-1.61.15-2,.44-.4.29-.6.64-.6,1.03,0,.49.21.85.63,1.07.42.23,1.92.63,4.49,1.2,1.71.4,3,1.01,3.85,1.83.85.83,1.27,1.86,1.27,3.1,0,1.63-.61,2.97-1.82,4-1.21,1.03-3.09,1.55-5.63,1.55s-4.5-.55-5.74-1.64c-1.24-1.09-1.85-2.49-1.85-4.18h4.37Z"/>
    <path class="cls-1" d="M1083.43,134.57c-.36,0-.7-.05-1.01-.14s-.58-.22-.8-.38c-.23-.16-.4-.35-.53-.57-.13-.22-.19-.46-.19-.73,0-.28.07-.54.2-.79.13-.24.31-.45.54-.63.23-.18.49-.31.8-.42.31-.1.64-.15.99-.15s.7.05,1.02.15c.32.1.59.24.82.42.23.18.41.39.54.63.13.24.2.5.2.79,0,.26-.06.5-.19.73-.13.22-.3.41-.53.57-.23.16-.5.29-.82.38-.32.09-.66.14-1.04.14ZM1081.27,136.63h4.37v16.49h-4.37v-16.49Z"/>
    <path class="cls-1" d="M1088.12,139.85v-3.07h2.3v-4.6h4.27v4.6h2.68v3.07h-2.68v8.71c0,.68.09,1.1.26,1.26.17.17.7.25,1.57.25.13,0,.27,0,.42,0,.15,0,.29-.01.43-.02v3.22l-2.04.08c-2.04.07-3.43-.28-4.18-1.06-.48-.49-.73-1.26-.73-2.28v-10.15h-2.3Z"/>
    <path class="cls-1" d="M1100.8,156.28l.54.03c.42.02.83,0,1.21-.05.38-.05.71-.17.97-.35.25-.17.49-.53.7-1.07.22-.54.31-.88.27-1l-6.05-17.22h4.8l3.6,12.16,3.4-12.16h4.58l-5.66,16.22c-1.09,3.13-1.95,5.07-2.59,5.82-.64.75-1.91,1.13-3.81,1.13-.38,0-.69,0-.92,0-.23,0-.58-.02-1.04-.05v-3.45Z"/>
  </g>
  <g>
    <path class="cls-1" d="M58.1,129.75c-.23,0-.45.03-.65.1-.19.06-.34.14-.47.24-.12.09-.21.2-.27.32-.05.1-.08.2-.08.32,0,.1.02.18.06.25.06.11.14.2.25.28.12.09.27.16.45.21.43.12.99.12,1.4,0h0c.18-.05.33-.13.45-.22.11-.08.19-.18.25-.28.04-.07.06-.16.06-.25,0-.11-.02-.22-.08-.32-.07-.12-.15-.23-.27-.32-.13-.1-.29-.19-.47-.25-.19-.06-.41-.1-.64-.1M58.1,133.36c-.42,0-.82-.05-1.19-.16-.4-.11-.75-.29-1.04-.51-.3-.23-.54-.51-.72-.82-.19-.34-.29-.73-.29-1.14s.1-.8.29-1.17c.18-.34.43-.63.73-.88.29-.23.63-.41,1.02-.54.76-.25,1.65-.24,2.39,0,.38.13.72.31,1.01.54.3.24.55.54.73.88.19.36.29.75.29,1.17s-.1.79-.29,1.13c-.18.32-.42.59-.72.82-.29.23-.64.4-1.03.51-.37.11-.76.16-1.19.16"/>
    <path class="cls-1" d="M67.89,127.47c-.3,0-.58.04-.84.13-.24.08-.45.19-.62.32-.16.13-.28.27-.37.44-.08.15-.12.3-.12.46,0,.15.03.27.1.39.08.15.2.28.35.39.16.12.36.22.6.29.54.16,1.25.16,1.78,0h0c.24-.07.44-.17.6-.29.15-.12.27-.24.35-.39.07-.12.1-.24.1-.39,0-.17-.04-.32-.12-.46-.09-.17-.21-.31-.37-.44-.17-.14-.38-.25-.62-.33-.25-.08-.52-.12-.82-.12M67.89,131.81c-.49,0-.95-.06-1.38-.19-.46-.13-.86-.32-1.19-.58-.34-.26-.62-.58-.82-.93-.22-.39-.33-.82-.33-1.27s.11-.9.33-1.31c.21-.39.49-.72.83-1,.33-.27.73-.47,1.17-.62.87-.29,1.91-.28,2.76,0,.44.15.83.36,1.16.62.35.28.63.61.83,1,.22.41.33.85.33,1.31s-.11.89-.33,1.27c-.2.36-.48.67-.82.93-.33.26-.73.45-1.18.58-.42.12-.89.19-1.37.19"/>
    <path class="cls-1" d="M78.79,125.13c-.38,0-.73.05-1.06.16-.31.1-.58.24-.8.42-.21.17-.37.36-.49.58-.11.2-.16.41-.16.64,0,.21.05.39.14.56.11.2.26.37.46.52.21.16.47.28.78.37.68.2,1.57.2,2.23,0h0c.31-.09.57-.22.78-.38.2-.15.35-.33.46-.52.09-.17.14-.35.14-.56,0-.23-.05-.44-.16-.64-.12-.23-.28-.42-.49-.58-.22-.18-.49-.32-.8-.42-.32-.11-.67-.16-1.04-.16M78.79,130.33c-.57,0-1.11-.07-1.61-.21-.52-.15-.99-.38-1.37-.67-.39-.3-.71-.66-.93-1.07-.24-.44-.37-.92-.37-1.44s.13-1.03.37-1.49c.23-.44.55-.82.95-1.14.38-.31.84-.55,1.35-.72,1.01-.33,2.21-.33,3.21,0,.51.17.96.41,1.34.72.4.32.72.7.95,1.14.25.46.37.96.37,1.49s-.13,1-.37,1.44c-.23.41-.54.76-.93,1.07-.38.3-.84.52-1.36.67-.49.14-1.03.22-1.6.22"/>
    <path class="cls-1" d="M84.82,96.06c-.27.27-.67.34-1.01.17-.34-.17-.54-.53-.49-.91.12-1.03-.15-1.74-.81-2.16-1.22-.77-3.72-.47-5.45.65-.62.4-1.64,1.24-1.5,2.34.06.49-.28.94-.76,1-.48.06-.93-.28-.99-.77-.44-3.4-2.24-4.46-3.68-4.76-2.38-.49-5.22.8-6.46,2.94-1.06,1.82-.72,3.9.96,5.87.2.24.27.57.17.87-.1.3-.35.52-.65.59-6.26,1.39-8.22,4.37-7.97,6.69.3,2.74,3.79,5.66,9.7,5.66.24,0,.46.1.63.27.17.17.26.4.26.64-.01,1.19.38,2.13.91,2.86h26.53c3.85,0,7-3.18,7-7.07v-15.91c-4.21-3.48-11.08-4.27-16.37,1.04"/>
    <path class="cls-1" d="M54.4,108.77c-.31-2.9,1.68-6.5,8.04-8.29-1.42-2.26-1.55-4.68-.31-6.81,1.63-2.8,5.22-4.43,8.34-3.79,1.96.4,3.46,1.65,4.33,3.55.35-.4.79-.77,1.3-1.11,2-1.3,5.26-1.98,7.34-.67.73.46,1.23,1.11,1.48,1.92,5.35-4.32,11.78-3.77,16.26-.77v-10.57c0-3.89-3.15-7.07-7-7.07h-39.51c-3.85,0-7,3.18-7,7.07v28.7c0,3.89,3.15,7.07,7,7.07h10.92c-.29-.62-.49-1.28-.58-1.99-6.49-.28-10.25-3.78-10.62-7.23"/>
    <path class="cls-1" d="M104.44,106.59c3.35-4.28,1.83-9.16-1.3-12.22-.6-.58-1.25-1.11-1.95-1.58v2.22c.25.21.49.42.72.65,2.48,2.42,4.15,6.59.67,10.37-.16.18-.25.42-.24.66.01.24.12.47.3.63,2.62,2.29,2.77,6.72.35,10.3-3.19,4.71-10.7,7.54-22.22,1.38-.13-.07-.27-.1-.41-.1-.19,0-.38.06-.54.18-2.58,1.98-6.87,2.28-9.99.69-.64-.33-1.52-.9-2.18-1.79h-2.06c.66,1.39,1.82,2.56,3.45,3.38,3.5,1.78,8.28,1.53,11.39-.53,4.79,2.48,8.95,3.5,12.46,3.5,5.5,0,9.39-2.49,11.57-5.7,2.73-4.04,2.68-9.04-.02-12.04"/>
    <path class="cls-2" d="M134.46,88.38c.29.12.5.4.54.71l.95,7.83h3.35v-9.21c0-.28.13-.54.34-.7l1.57-1.22-4.66-1.4c-.35-.11-.6-.42-.63-.79-.02-.37.18-.72.52-.87l4.43-1.99-3.89-1.15c-.29-.09-.52-.32-.6-.61-.08-.29,0-.61.2-.84l2.71-2.99h-13.81c.22,5.77,3.69,10.92,8.97,13.22"/>
    <path class="cls-2" d="M143.67,79.73c.35.1.6.42.63.79.02.37-.18.72-.52.87l-4.45,1.99,4.03,1.21c.32.1.55.36.61.69s-.07.66-.33.86l-2.59,2.01v8.78h3.66l.94-7.81c.04-.31.24-.6.53-.73,5.3-2.29,8.77-7.45,9-13.23h-13.5l-2.84,3.14,4.84,1.43Z"/>
    <path class="cls-2" d="M145.61,102.49h-10.55c-.48,0-.88-.4-.88-.89s.39-.89.88-.89h10.55c.48,0,.88.4.88.89s-.39.89-.88.89M145.61,105.91h-10.55c-.48,0-.88-.4-.88-.89s.39-.89.88-.89h10.55c.48,0,.88.4.88.89s-.39.89-.88.89M145.61,109.34h-10.55c-.48,0-.88-.4-.88-.89s.39-.89.88-.89h10.55c.48,0,.88.4.88.89s-.39.89-.88.89M142.22,112.76h-3.77c-.49,0-.88-.4-.88-.89s.39-.89.88-.89h3.77c.48,0,.88.4.88.89s-.39.89-.88.89M160.15,75.16h-3.22c-.22,6.32-3.91,11.98-9.59,14.65l-.98,8.11c-.05.44-.43.78-.87.78h-10.32c-.44,0-.82-.33-.87-.78l-.99-8.11c-5.69-2.69-9.37-8.33-9.58-14.64h-3.09c-3.85,0-7,3.18-7,7.07v28.7c0,3.89,3.15,7.07,7,7.07h39.51c3.85,0,7-3.18,7-7.07v-28.7c0-3.89-3.15-7.07-7-7.07"/>
    <path class="cls-1" d="M48.64,137.45h2.52v14.76h-2.52v-14.76ZM48.64,137.45h2.52v14.76h-2.52v-14.76ZM49.88,134.86c-.3,0-.58-.04-.84-.11-.26-.07-.48-.18-.66-.32-.18-.14-.33-.3-.43-.48-.1-.18-.16-.39-.16-.61s.05-.45.16-.65c.11-.2.26-.38.44-.53.19-.15.41-.26.66-.35.26-.08.53-.13.82-.13s.56.04.82.13c.25.08.47.2.66.35.19.15.34.32.45.53.11.2.16.42.16.65s-.05.42-.16.61c-.11.18-.25.35-.43.48-.18.14-.4.25-.66.32s-.53.11-.84.11"/>
    <path class="cls-1" d="M66.44,142.36h-2.4c-.15-.92-.48-1.68-1-2.29-.52-.61-1.36-.91-2.51-.91-1.57,0-2.69.78-3.37,2.33-.44,1.01-.66,2.25-.66,3.73s.31,2.74.93,3.76c.62,1.02,1.6,1.52,2.93,1.52,1.02,0,1.83-.32,2.43-.95.6-.63,1.01-1.5,1.24-2.6h2.4c-.27,1.97-.96,3.4-2.06,4.31-1.1.91-2.5,1.36-4.21,1.36-1.92,0-3.45-.71-4.59-2.12-1.14-1.42-1.71-3.19-1.71-5.31,0-2.6.63-4.63,1.88-6.08,1.25-1.45,2.85-2.17,4.78-2.17,1.65,0,3,.41,4.03,1.22,1.04.81,1.66,2.21,1.87,4.19"/>
    <path class="cls-1" d="M79.12,144.7c0-1.18-.17-2.2-.51-3.05-.64-1.63-1.81-2.45-3.51-2.45s-2.88.86-3.51,2.59c-.34.92-.51,2.1-.51,3.52,0,1.14.17,2.12.51,2.92.64,1.53,1.81,2.3,3.51,2.3,1.15,0,2.11-.49,2.87-1.46.76-.97,1.14-2.43,1.14-4.37M68.72,137.45h2.4v1.97c.49-.67,1.03-1.2,1.62-1.56.83-.55,1.81-.83,2.93-.83,1.66,0,3.07.64,4.23,1.93,1.16,1.29,1.74,3.13,1.74,5.52,0,3.23-.84,5.54-2.51,6.92-1.06.88-2.29,1.31-3.7,1.31-1.11,0-2.03-.24-2.78-.73-.44-.28-.93-.75-1.47-1.43v7.57h-2.47v-20.67Z"/>
    <path class="cls-1" d="M96.08,142.36h-2.4c-.15-.92-.48-1.68-1-2.29-.52-.61-1.36-.91-2.51-.91-1.57,0-2.69.78-3.37,2.33-.44,1.01-.66,2.25-.66,3.73s.31,2.74.93,3.76c.62,1.02,1.6,1.52,2.93,1.52,1.02,0,1.83-.32,2.43-.95.6-.63,1.01-1.5,1.24-2.6h2.4c-.27,1.97-.96,3.4-2.06,4.31-1.1.91-2.5,1.36-4.21,1.36-1.92,0-3.45-.71-4.59-2.12-1.14-1.42-1.71-3.19-1.71-5.31,0-2.6.63-4.63,1.88-6.08,1.25-1.45,2.85-2.17,4.78-2.17,1.65,0,3,.41,4.03,1.22,1.04.81,1.66,2.21,1.87,4.19"/>
    <path class="cls-1" d="M100.56,152.27c-.3,0-.58-.04-.84-.11-.26-.07-.48-.18-.66-.32-.18-.14-.33-.3-.43-.48-.1-.18-.16-.39-.16-.61s.05-.45.16-.65c.11-.2.26-.38.44-.53.19-.15.41-.26.66-.35.26-.08.53-.13.82-.13s.56.04.82.13c.25.08.47.2.66.35.19.15.34.32.45.53.11.2.16.42.16.65s-.05.42-.16.61c-.11.18-.25.35-.43.48-.18.14-.4.25-.66.32-.26.07-.53.11-.84.11"/>
    <path class="cls-1" d="M107.49,132.85c.58-.85,1.69-1.27,3.33-1.27.15,0,.31,0,.48.01.16,0,.35.02.56.04v2.27c-.26-.02-.44-.03-.55-.04-.11,0-.22,0-.32,0-.75,0-1.2.2-1.34.59-.15.39-.22,1.39-.22,3h2.44v1.96h-2.47v12.79h-2.44v-12.79h-2.04v-1.96h2.04v-2.33c.04-1.03.21-1.79.53-2.27"/>
    <path class="cls-1" d="M124.23,144.55c0-1.38-.22-2.51-.66-3.38-.69-1.37-1.89-2.05-3.6-2.05-1.51,0-2.61.58-3.29,1.74-.69,1.16-1.03,2.57-1.03,4.21s.34,2.89,1.03,3.95c.69,1.05,1.78,1.58,3.27,1.58,1.64,0,2.76-.63,3.37-1.88.61-1.25.91-2.64.91-4.17M126.81,144.48c0,2.39-.58,4.36-1.73,5.92-1.15,1.56-2.94,2.34-5.36,2.34-2.02,0-3.62-.69-4.81-2.07-1.19-1.38-1.78-3.23-1.78-5.56,0-2.49.63-4.48,1.88-5.95,1.25-1.48,2.93-2.21,5.04-2.21,1.89,0,3.49.64,4.8,1.91,1.31,1.27,1.96,3.15,1.96,5.62"/>
    <path class="cls-1" d="M132.07,137.38v9.83c0,.76.12,1.37.36,1.85.44.88,1.26,1.33,2.45,1.33,1.72,0,2.89-.77,3.51-2.32.34-.83.51-1.97.51-3.42v-7.27h2.47v14.82h-2.33l.03-2.19c-.32.56-.72,1.04-1.19,1.43-.94.77-2.08,1.16-3.43,1.16-2.09,0-3.52-.71-4.27-2.12-.41-.76-.62-1.77-.62-3.03v-10.08h2.52Z"/>
    <path class="cls-1" d="M145.07,137.38h2.34v2.1c.69-.87,1.43-1.49,2.21-1.87.78-.38,1.64-.57,2.59-.57,2.08,0,3.49.73,4.23,2.2.4.8.6,1.95.6,3.45v9.51h-2.52v-9.34c0-.9-.13-1.63-.4-2.19-.44-.92-1.23-1.38-2.38-1.38-.58,0-1.06.06-1.44.18-.68.2-1.27.61-1.78,1.22-.41.49-.68.99-.8,1.52-.12.52-.18,1.27-.18,2.24v7.76h-2.47v-14.82Z"/>
    <path class="cls-1" d="M166.44,150.56c1.14,0,2.08-.5,2.82-1.49.74-.99,1.1-2.42,1.1-4.27s-.38-3.26-1.14-4.16c-.76-.9-1.69-1.35-2.81-1.35-1.24,0-2.25.48-3.02,1.44-.77.96-1.16,2.37-1.16,4.24,0,1.59.33,2.92,1,3.99.67,1.07,1.73,1.61,3.21,1.61M168.77,137.84c.44.28.94.76,1.49,1.45v-7.49h2.37v20.4h-2.22v-2.06c-.58.91-1.26,1.57-2.04,1.98-.79.41-1.68.61-2.7.61-1.63,0-3.05-.69-4.25-2.08-1.2-1.39-1.79-3.24-1.79-5.54,0-2.16.55-4.03,1.64-5.61,1.09-1.58,2.65-2.37,4.68-2.37,1.12,0,2.06.24,2.82.72"/>
    <path class="cls-1" d="M180.66,150.58c.87,0,1.71-.2,2.52-.61,1.37-.67,2.06-1.78,2.06-3.31v-2.01c-.3.19-.69.36-1.17.48-.48.13-.94.22-1.4.28l-1.49.19c-.89.12-1.57.31-2.01.57-.76.43-1.14,1.13-1.14,2.08,0,.72.26,1.29.78,1.7.52.42,1.14.62,1.85.62M184,143.22c.57-.07.94-.31,1.14-.72.11-.22.16-.54.16-.96,0-.85-.3-1.46-.9-1.85-.6-.38-1.45-.58-2.57-.58-1.29,0-2.2.35-2.74,1.05-.3.39-.5.97-.59,1.73h-2.3c.05-1.83.63-3.1,1.76-3.81,1.13-.72,2.44-1.07,3.93-1.07,1.73,0,3.13.33,4.21,1,1.07.66,1.6,1.7,1.6,3.1v8.54c0,.26.05.47.16.62.1.16.33.24.66.24.11,0,.23,0,.37-.02.14-.01.28-.03.44-.06v1.84c-.38.11-.68.18-.88.21-.2.03-.48.04-.82.04-.85,0-1.47-.3-1.85-.91-.2-.32-.34-.78-.42-1.37-.5.66-1.22,1.24-2.17,1.73-.94.49-1.98.73-3.11.73-1.36,0-2.47-.42-3.34-1.25-.86-.84-1.29-1.88-1.29-3.14,0-1.37.42-2.44,1.27-3.2.85-.76,1.96-1.22,3.34-1.4l3.93-.5Z"/>
    <path class="cls-1" d="M192.24,133.24h2.49v4.14h2.34v2.04h-2.34v9.68c0,.52.17.86.52,1.04.19.1.51.15.96.15.12,0,.25,0,.38,0,.14,0,.3-.01.48-.03v1.97c-.28.08-.58.14-.88.18-.31.04-.64.06-.99.06-1.15,0-1.93-.3-2.34-.89-.41-.6-.62-1.37-.62-2.32v-9.81h-1.99v-2.04h1.99v-4.14Z"/>
    <path class="cls-1" d="M199.54,137.45h2.52v14.76h-2.52v-14.76ZM199.54,137.45h2.52v14.76h-2.52v-14.76ZM200.77,134.86c-.3,0-.58-.04-.84-.11-.26-.07-.48-.18-.66-.32-.18-.14-.33-.3-.43-.48-.1-.18-.16-.39-.16-.61s.05-.45.16-.65c.11-.2.26-.38.44-.53.19-.15.41-.26.66-.35.26-.08.53-.13.82-.13s.56.04.81.13c.25.08.47.2.66.35.19.15.34.32.44.53.11.2.16.42.16.65s-.05.42-.16.61c-.11.18-.25.35-.43.48-.18.14-.4.25-.66.32-.26.07-.53.11-.84.11"/>
    <path class="cls-1" d="M215.87,144.55c0-1.38-.22-2.51-.66-3.38-.7-1.37-1.89-2.05-3.6-2.05-1.51,0-2.61.58-3.29,1.74-.69,1.16-1.03,2.57-1.03,4.21s.34,2.89,1.03,3.95c.69,1.05,1.77,1.58,3.27,1.58,1.64,0,2.76-.63,3.37-1.88.61-1.25.91-2.64.91-4.17M218.45,144.48c0,2.39-.58,4.36-1.73,5.92-1.15,1.56-2.94,2.34-5.36,2.34-2.02,0-3.62-.69-4.81-2.07-1.19-1.38-1.78-3.23-1.78-5.56,0-2.49.63-4.48,1.88-5.95,1.25-1.48,2.93-2.21,5.04-2.21,1.89,0,3.49.64,4.8,1.91,1.31,1.27,1.96,3.15,1.96,5.62"/>
    <path class="cls-1" d="M221.24,137.38h2.34v2.1c.69-.87,1.43-1.49,2.21-1.87.78-.38,1.64-.57,2.59-.57,2.08,0,3.49.73,4.23,2.2.4.8.6,1.95.6,3.45v9.51h-2.52v-9.34c0-.9-.13-1.63-.4-2.19-.44-.92-1.23-1.38-2.38-1.38-.58,0-1.06.06-1.44.18-.68.2-1.27.61-1.78,1.22-.41.49-.68.99-.8,1.52-.12.52-.18,1.27-.18,2.24v7.76h-2.47v-14.82Z"/>
    <path class="cls-2" d="M124.31,68.55c-.12,0-.23-.02-.35-.07l-9.49-3.97c-.35-.15-.56-.49-.56-.85,0-.12.02-.24.07-.35.19-.47.73-.69,1.19-.5l9.49,3.97c.35.15.56.49.56.85,0,.12-.02.24-.07.35-.15.35-.48.57-.84.57"/>
    <path class="cls-2" d="M128.07,62.86c-.23,0-.47-.09-.64-.27l-7.15-7.23c-.18-.18-.27-.41-.27-.65s.09-.47.27-.65c.35-.36.93-.36,1.29,0l7.15,7.23c.18.18.27.41.27.65s-.09.47-.27.65c-.18.18-.41.27-.64.27"/>
    <path class="cls-2" d="M133.69,59.07c-.36,0-.7-.21-.84-.57l-3.84-9.37c-.05-.12-.07-.23-.07-.35,0-.36.21-.7.56-.85.46-.2,1,.03,1.19.5l3.84,9.37c.05.11.07.23.07.35,0,.36-.21.7-.56.85-.11.05-.23.07-.35.07"/>
    <path class="cls-2" d="M140.33,57.73c-.5,0-.91-.41-.91-.92v-10.13c0-.51.41-.92.91-.92s.91.41.91.92v10.13c0,.51-.41.92-.91.92"/>
    <path class="cls-2" d="M146.97,59.07c-.12,0-.23-.02-.35-.07-.35-.15-.56-.49-.56-.85,0-.12.02-.24.07-.35l3.87-9.43c.19-.47.72-.69,1.19-.5.35.15.56.49.56.85,0,.12-.02.24-.07.35l-3.87,9.43c-.15.35-.48.57-.84.57"/>
    <path class="cls-2" d="M152.6,62.86c-.23,0-.47-.09-.64-.27-.18-.18-.27-.41-.27-.65s.09-.47.27-.65l7.23-7.31c.36-.36.93-.36,1.29,0,.18.18.27.41.27.65s-.09.47-.27.65l-7.24,7.31c-.18.18-.41.27-.64.27"/>
    <path class="cls-2" d="M156.36,68.55c-.36,0-.7-.21-.84-.57-.05-.11-.07-.23-.07-.35,0-.36.21-.7.56-.85l9.63-4.03c.47-.2,1,.03,1.19.5.05.11.07.23.07.35,0,.36-.21.7-.56.85l-9.63,4.03c-.11.05-.23.07-.35.07"/>
    <path class="cls-4" d="M226.12,75.17h-16.3c.92.84,1.92,1.6,2.91,2.23,0,0,.06.04.06.04,7.03,4.59,10.32,9.7,9.78,15.18-.63,6.43-6.46,13.1-17.31,19.84-3.65,2.27-7.29,4.16-10.17,5.55h31.02c3.85,0,7-3.18,7-7.07v-28.7c0-3.89-3.15-7.07-7-7.07"/>
    <path class="cls-4" d="M220.82,92.43c.47-4.76-2.55-9.3-8.98-13.5-.91-.58-2.85-1.93-4.5-3.77h-20.72c-3.85,0-7,3.18-7,7.07v28.7c0,3.89,3.15,7.07,7,7.07h4.23c7.04-3.13,28.8-13.72,29.97-25.57"/>
    <path class="cls-4" d="M207.46,62.59s-.01,0-.02.01c-.1.04-.19.09-.26.16,0,0-.02.01-.03.02-.08.08-.15.17-.2.27h0s0,0,0,0c-.03.06-.05.12-.07.18,0,.05,0,.1-.01.14,0,0,0,.02,0,.03,0,.12.02.23.06.34h0s1.65,4.26,1.65,4.26h-6.36l1.65-4.26s0-.01,0-.02c.04-.1.05-.2.05-.31,0-.02,0-.04,0-.07,0-.04,0-.08,0-.12-.01-.05-.03-.1-.05-.15,0,0,0-.02,0-.03,0,0,0,0,0-.01-.05-.1-.11-.19-.19-.26-.01-.01-.03-.02-.04-.03-.07-.06-.16-.12-.26-.15,0,0-.01,0-.02-.01-7.37-2.58-13.46-11.38-13.86-20.01-.2-4.31,1.13-8.11,3.86-11,2.96-3.13,7.24-4.86,12.08-4.86s9.09,1.73,12.05,4.86c2.73,2.89,4.06,6.69,3.86,11-.41,8.64-6.5,17.43-13.86,20.01M215.21,64.69c.17.33,0,.57-.17.71-.59.48-2.43.72-5.36-1.52,3.37-.66,5.14.06,5.53.81M195.74,65.4c-.17-.14-.34-.37-.17-.71.28-.55,1.28-1.07,3.1-1.07.69,0,1.5.08,2.43.26-2.93,2.24-4.77,2.01-5.36,1.52M223.09,42.66c.23-4.81-1.28-9.07-4.35-12.32-3.3-3.49-8.03-5.41-13.36-5.41s-10.04,1.92-13.33,5.41c-3.07,3.25-4.57,7.51-4.35,12.32.35,7.45,4.66,15.01,10.46,19.18-2.28.11-3.62.98-4.16,2.03-.52,1.02-.27,2.2.63,2.93.52.42,1.28.7,2.23.7,1.14,0,2.56-.4,4.2-1.43l-.97,2.52c-.11.27-.07.59.09.83.16.24.44.39.73.39h3.66c.22,1.76,1.17,3.58,2.76,5.36h2.49c-1.45-1.32-3.11-3.25-3.47-5.36h3.51c.29,0,.57-.15.73-.39.16-.24.2-.55.09-.83l-.97-2.52c1.64,1.02,3.05,1.43,4.19,1.43.96,0,1.71-.28,2.24-.7.9-.73,1.15-1.91.63-2.93-.54-1.05-1.87-1.92-4.15-2.03,5.8-4.17,10.11-11.72,10.46-19.18"/>
  </g>
</svg>